<?xml version="1.0" encoding="UTF-8" standalone="no"?>
<svg
   xmlns:dc="http://purl.org/dc/elements/1.1/"
   xmlns:cc="http://creativecommons.org/ns#"
   xmlns:rdf="http://www.w3.org/1999/02/22-rdf-syntax-ns#"
   xmlns:svg="http://www.w3.org/2000/svg"
   xmlns="http://www.w3.org/2000/svg"
   xmlns:sodipodi="http://sodipodi.sourceforge.net/DTD/sodipodi-0.dtd"
   xmlns:inkscape="http://www.inkscape.org/namespaces/inkscape"
   aria-hidden="true"
   focusable="false"
   data-prefix="fab"
   data-icon="instagram"
   class="svg-inline--fa fa-instagram fa-w-14"
   role="img"
   viewBox="0 0 45 44.989964"
   version="1.1"
   id="svg4"
   sodipodi:docname="instagram-brand.svg"
   width="45"
   height="44.989964"
   inkscape:version="0.92.4 5da689c313, 2019-01-14">
  <metadata
     id="metadata10">
    <rdf:RDF>
      <cc:Work
         rdf:about="">
        <dc:format>image/svg+xml</dc:format>
        <dc:type
           rdf:resource="http://purl.org/dc/dcmitype/StillImage" />
        <dc:title />
      </cc:Work>
    </rdf:RDF>
  </metadata>
  <defs
     id="defs8" />
  <sodipodi:namedview
     pagecolor="#ffffff"
     bordercolor="#666666"
     borderopacity="1"
     objecttolerance="10"
     gridtolerance="10"
     guidetolerance="10"
     inkscape:pageopacity="0"
     inkscape:pageshadow="2"
     inkscape:window-width="1366"
     inkscape:window-height="689"
     id="namedview6"
     showgrid="false"
     fit-margin-top="0"
     fit-margin-left="0"
     fit-margin-right="0"
     fit-margin-bottom="0"
     inkscape:zoom="2.6074563"
     inkscape:cx="34.143101"
     inkscape:cy="36.098698"
     inkscape:window-x="0"
     inkscape:window-y="18"
     inkscape:window-maximized="1"
     inkscape:current-layer="svg4" />
  <path
     d="m 22.50502,10.960125 c -6.38483,0 -11.534858,5.15003 -11.534858,11.53486 0,6.38483 5.150028,11.53486 11.534858,11.53486 6.384829,0 11.534857,-5.15003 11.534857,-11.53486 0,-6.38483 -5.150028,-11.53486 -11.534857,-11.53486 z m 0,19.03402 c -4.126046,0 -7.499164,-3.36308 -7.499164,-7.49916 0,-4.13609 3.363079,-7.49916 7.499164,-7.49916 4.136084,0 7.499163,3.36307 7.499163,7.49916 0,4.13608 -3.373118,7.49916 -7.499163,7.49916 z m 14.697155,-19.50585 c 0,1.49581 -1.204685,2.69046 -2.690463,2.69046 -1.495817,0 -2.690463,-1.20469 -2.690463,-2.69046 0,-1.48578 1.204685,-2.69047 2.690463,-2.69047 1.485778,0 2.690463,1.20469 2.690463,2.69047 z m 7.63971,2.73062 c -0.170664,-3.60402 -0.993865,-6.79643 -3.634133,-9.42666 -2.630228,-2.63023 -5.822643,-3.45343 -9.426659,-3.63414 -3.714445,-0.21082 -14.847741,-0.21082 -18.562186,0 -3.5939767,0.17067 -6.7863917,0.99387 -9.4266594,3.6241 -2.6402677,2.63023 -3.45342998,5.82264 -3.63413271,9.42666 -0.21081985,3.71444 -0.21081985,14.84774 0,18.56218 0.17066369,3.60402 0.99386501,6.79643 3.63413271,9.42666 2.6402677,2.63023 5.8226436,3.45343 9.4266594,3.63414 3.714445,0.21081 14.847741,0.21081 18.562186,0 3.604016,-0.17067 6.796431,-0.99387 9.426659,-3.63414 2.630229,-2.63023 3.45343,-5.82264 3.634133,-9.42666 0.21082,-3.71444 0.21082,-14.8377 0,-18.55214 z m -4.798661,22.53764 c -0.783046,1.96765 -2.298941,3.48355 -4.276632,4.27663 -2.961517,1.17457 -9.988845,0.90352 -13.261572,0.90352 -3.272728,0 -10.310095,0.26101 -13.2615733,-0.90352 -1.9676519,-0.78304 -3.4835471,-2.29894 -4.2766313,-4.27663 -1.1745678,-2.96151 -0.9035137,-9.98884 -0.9035137,-13.26157 0,-3.27273 -0.261015,-10.3101 0.9035137,-13.26157 0.7830452,-1.96766 2.2989403,-3.48355 4.2766313,-4.27663 2.9615173,-1.17457 9.9888453,-0.90352 13.2615733,-0.90352 3.272727,0 10.310094,-0.26101 13.261572,0.90352 1.967652,0.78304 3.483547,2.29894 4.276632,4.27663 1.174567,2.96151 0.903513,9.98884 0.903513,13.26157 0,3.27273 0.271054,10.31009 -0.903513,13.26157 z"
     id="path2"
     inkscape:connector-curvature="0"
     style="fill:#f6f6f6;stroke-width:0.1003904;fill-opacity:1" />
</svg>
