<?xml version="1.0" encoding="UTF-8" standalone="no"?>
<svg
   xmlns:osb="http://www.openswatchbook.org/uri/2009/osb"
   xmlns:dc="http://purl.org/dc/elements/1.1/"
   xmlns:cc="http://creativecommons.org/ns#"
   xmlns:rdf="http://www.w3.org/1999/02/22-rdf-syntax-ns#"
   xmlns:svg="http://www.w3.org/2000/svg"
   xmlns="http://www.w3.org/2000/svg"
   xmlns:xlink="http://www.w3.org/1999/xlink"
   xmlns:sodipodi="http://sodipodi.sourceforge.net/DTD/sodipodi-0.dtd"
   xmlns:inkscape="http://www.inkscape.org/namespaces/inkscape"
   width="210mm"
   height="297mm"
   viewBox="0 0 210 297"
   version="1.1"
   id="svg8"
   inkscape:version="1.0 (4035a4fb49, 2020-05-01)"
   sodipodi:docname="angel-logo.svg">
  <defs
     id="defs2">
    <linearGradient
       inkscape:collect="always"
       id="linearGradient3309">
      <stop
         style="stop-color:#22b799;stop-opacity:1;"
         offset="0"
         id="stop3305" />
      <stop
         style="stop-color:#24639b;stop-opacity:1"
         offset="1"
         id="stop3307" />
    </linearGradient>
    <linearGradient
       id="linearGradient2998"
       osb:paint="solid">
      <stop
         style="stop-color:#000000;stop-opacity:1;"
         offset="0"
         id="stop2996" />
    </linearGradient>
    <linearGradient
       inkscape:collect="always"
       xlink:href="#linearGradient3309"
       id="linearGradient3311"
       x1="912.02216"
       y1="1121.3706"
       x2="66.902641"
       y2="853.57904"
       gradientUnits="userSpaceOnUse" />
    <linearGradient
       y2="844.87048"
       x2="131.93913"
       y1="795.45197"
       x1="784.30054"
       gradientTransform="matrix(0.21779702,0,0,0.21779702,66.280348,40.607618)"
       gradientUnits="userSpaceOnUse"
       id="linearGradient903"
       xlink:href="#linearGradient3309"
       inkscape:collect="always" />
  </defs>
  <sodipodi:namedview
     id="base"
     pagecolor="#ffffff"
     bordercolor="#666666"
     borderopacity="1.0"
     inkscape:pageopacity="0.0"
     inkscape:pageshadow="2"
     inkscape:zoom="0.98994949"
     inkscape:cx="501.83745"
     inkscape:cy="502.90876"
     inkscape:document-units="mm"
     inkscape:current-layer="layer1"
     inkscape:document-rotation="0"
     showgrid="false"
     inkscape:window-width="1664"
     inkscape:window-height="1014"
     inkscape:window-x="1372"
     inkscape:window-y="26"
     inkscape:window-maximized="1" />
  <metadata
     id="metadata5">
    <rdf:RDF>
      <cc:Work
         rdf:about="">
        <dc:format>image/svg+xml</dc:format>
        <dc:type
           rdf:resource="http://purl.org/dc/dcmitype/StillImage" />
        <dc:title />
      </cc:Work>
    </rdf:RDF>
  </metadata>
  <g
     inkscape:label="Layer 1"
     inkscape:groupmode="layer"
     id="layer1">
    <path
       d="m 126.90403,92.674736 c -3.44621,2.61e-4 -6.43715,2.376772 -7.21619,5.73377 l -0.009,-0.002 -26.348984,79.045174 c -0.05743,0.15938 0.797585,2.78608 0.874887,3.04912 l 0.860262,2.82952 0.817652,2.79978 c 0.320421,1.0691 0.41968,1.47754 0.723207,2.49977 1.100283,3.39986 1.737266,5.76954 2.793547,9.32127 0.708239,2.44552 1.668119,5.77143 1.953939,6.70884 l 0.51553,1.8126 24.63269,-75.84348 26.8498,90.83886 0.002,-8.5e-4 c 0.92599,3.651 4.21192,6.20775 7.97852,6.208 4.54637,1.4e-4 8.23199,-3.68541 8.23195,-8.23178 -8e-5,-0.8975 -0.14694,-1.78894 -0.43476,-2.63904 l 0.0113,-0.005 -34.99981,-118.410984 -0.0231,0.007 c -0.78425,-3.351109 -3.77301,-5.720831 -7.21466,-5.72035 z m 8.05356,76.194594 c -0.0686,1.9e-4 -0.13708,0.003 -0.20548,0.007 h -17.9169 v 0.006 c -1.81266,0.008 -3.27788,1.47975 -3.278,3.29243 -1.4e-4,1.81852 1.47396,3.29283 3.29248,3.29294 0.0566,-5.4e-4 0.11321,-0.003 0.16972,-0.006 h 17.92522 v -0.007 c 0.004,1e-5 0.009,1e-5 0.0133,0 1.81858,1e-5 3.29281,-1.47431 3.29269,-3.29289 -1.4e-4,-1.8184 -1.47429,-3.29243 -3.29269,-3.29242 z"
       style="mix-blend-mode:normal;fill:url(#linearGradient903);fill-opacity:1;fill-rule:evenodd;stroke:none;stroke-width:0.82316;stroke-miterlimit:4;stroke-dasharray:none;stroke-opacity:1"
       id="path33-6-6"
       sodipodi:nodetypes="ccccccccccccccccccccccccccscccccscc" />
    <path
       id="path33-6"
       style="mix-blend-mode:normal;fill:url(#linearGradient3311);fill-opacity:1;fill-rule:evenodd;stroke:none;stroke-width:3.77953;stroke-miterlimit:4;stroke-dasharray:none;stroke-opacity:1"
       d="m 278.34961,239.0625 a 34.015748,34.015748 0 0 0 -33.13281,26.32617 l -0.0391,-0.0117 L 70.591767,801.5508 a 37.795276,37.795276 0 0 0 -0.722656,2.21875 l -0.220703,0.67969 0.02734,0.01 a 37.795276,37.795276 0 0 0 -1.318359,9.89063 37.795276,37.795276 0 0 0 37.794921,37.79687 37.795276,37.795276 0 0 0 35.3086,-24.31445 l 0.0644,0.0215 134.97656,-414.53321 123.2793,417.08008 0.0117,-0.004 a 37.795276,37.795276 0 0 0 36.63281,28.50391 37.795276,37.795276 0 0 0 37.79688,-37.79492 37.795276,37.795276 0 0 0 -1.9961,-12.11719 l 0.0449,-0.0137 -160.69921,-543.67578 -0.10157,0.0293 A 34.015748,34.015748 0 0 0 278.34961,239.0625 Z m 36.97656,349.8418 a 15.11811,15.11811 0 0 0 -0.94336,0.0293 h -82.26367 v 0.0215 a 15.11811,15.11811 0 0 0 -15.05078,15.11719 15.11811,15.11811 0 0 0 15.11719,15.11914 15.11811,15.11811 0 0 0 0.77929,-0.0215 h 82.30274 v -0.0293 a 15.11811,15.11811 0 0 0 0.0586,0 15.11811,15.11811 0 0 0 15.11719,-15.11914 15.11811,15.11811 0 0 0 -15.11719,-15.11718 z"
       transform="scale(0.26458333)" />
  </g>
</svg>
