<?xml version="1.0" encoding="UTF-8" standalone="no"?>
<svg
   xmlns:dc="http://purl.org/dc/elements/1.1/"
   xmlns:cc="http://creativecommons.org/ns#"
   xmlns:rdf="http://www.w3.org/1999/02/22-rdf-syntax-ns#"
   xmlns:svg="http://www.w3.org/2000/svg"
   xmlns="http://www.w3.org/2000/svg"
   xmlns:sodipodi="http://sodipodi.sourceforge.net/DTD/sodipodi-0.dtd"
   xmlns:inkscape="http://www.inkscape.org/namespaces/inkscape"
   id="bfc59778-adb9-4ded-81d5-12977ec092f3"
   data-name="Layer 1"
   width="400"
   height="362.77417"
   viewBox="0 0 399.99999 362.77417"
   version="1.1"
   sodipodi:docname="about-img.svg"
   inkscape:version="0.92.4 5da689c313, 2019-01-14">
  <metadata
     id="metadata400">
    <rdf:RDF>
      <cc:Work
         rdf:about="">
        <dc:format>image/svg+xml</dc:format>
        <dc:type
           rdf:resource="http://purl.org/dc/dcmitype/StillImage" />
        <dc:title>on the office</dc:title>
      </cc:Work>
    </rdf:RDF>
  </metadata>
  <sodipodi:namedview
     pagecolor="#ffffff"
     bordercolor="#666666"
     borderopacity="1"
     objecttolerance="10"
     gridtolerance="10"
     guidetolerance="10"
     inkscape:pageopacity="0"
     inkscape:pageshadow="2"
     inkscape:window-width="1366"
     inkscape:window-height="689"
     id="namedview398"
     showgrid="false"
     fit-margin-top="0"
     fit-margin-left="0"
     fit-margin-right="0"
     fit-margin-bottom="0"
     inkscape:zoom="0.56992442"
     inkscape:cx="494.68601"
     inkscape:cy="145.25416"
     inkscape:window-x="0"
     inkscape:window-y="18"
     inkscape:window-maximized="1"
     inkscape:current-layer="bfc59778-adb9-4ded-81d5-12977ec092f3" />
  <defs
     id="defs9">
    <linearGradient
       id="e507827f-2863-48fa-82fe-b741cb149057"
       x1="-925.56"
       y1="683.71002"
       x2="-925.56"
       y2="144.42"
       gradientTransform="matrix(-1,0,0,1,-573.82,0)"
       gradientUnits="userSpaceOnUse">
      <stop
         offset="0"
         stop-color="gray"
         stop-opacity="0.25"
         id="stop2" />
      <stop
         offset="0.54"
         stop-color="gray"
         stop-opacity="0.12"
         id="stop4" />
      <stop
         offset="1"
         stop-color="gray"
         stop-opacity="0.1"
         id="stop6" />
    </linearGradient>
    <linearGradient
       id="e507827f-2863-48fa-82fe-b741cb149057-0"
       x1="-925.56"
       y1="683.71002"
       x2="-925.56"
       y2="144.42"
       gradientTransform="matrix(-0.50876902,0,0,0.50876902,-289.474,-73.50411)"
       gradientUnits="userSpaceOnUse">
      <stop
         offset="0"
         stop-color="gray"
         stop-opacity="0.25"
         id="stop2-9" />
      <stop
         offset="0.54"
         stop-color="gray"
         stop-opacity="0.12"
         id="stop4-3" />
      <stop
         offset="1"
         stop-color="gray"
         stop-opacity="0.1"
         id="stop6-6" />
    </linearGradient>
  </defs>
  <title
     id="title11">on the office</title>
  <rect
     x="146.37823"
     y="148.40059"
     width="15.537807"
     height="17.90867"
     id="rect55"
     style="opacity:0.1;fill:#6c63ff;stroke-width:0.50876904" />
  <rect
     x="-108.14934"
     y="-154.68892"
     width="13.10589"
     height="11.655898"
     transform="scale(-1)"
     id="rect91"
     style="opacity:0.1;fill:#6c63ff;stroke-width:0.50876904" />
  <rect
     x="-108.14934"
     y="-183.43947"
     width="13.10589"
     height="11.655898"
     transform="scale(-1)"
     id="rect95"
     style="opacity:0.1;fill:#6c63ff;stroke-width:0.50876904" />
  <rect
     x="-58.106827"
     y="-183.43947"
     width="13.10589"
     height="11.655898"
     transform="scale(-1)"
     id="rect97"
     style="opacity:0.1;fill:#6c63ff;stroke-width:0.50876904" />
  <rect
     x="-108.14934"
     y="-212.19508"
     width="13.10589"
     height="11.655898"
     transform="scale(-1)"
     id="rect99"
     style="opacity:0.1;fill:#6c63ff;stroke-width:0.50876904" />
  <rect
     x="-58.106827"
     y="-212.19508"
     width="13.10589"
     height="11.655898"
     transform="scale(-1)"
     id="rect101"
     style="opacity:0.1;fill:#6c63ff;stroke-width:0.50876904" />
  <polygon
     points="278.5,578.48 304.25,580.58 304.25,565.81 278.5,565.81 "
     id="polygon103"
     transform="matrix(0.50876902,0,0,0.50876902,-46.648723,-58.57684)"
     style="opacity:0.1;fill:#6c63ff" />
  <path
     d="m 296.24634,356.29377 c 0,0 -28.43002,-1.52631 -35.35945,-5.59646 -6.92943,-4.07016 -16.7385,-4.07016 -16.78938,-4.07016 l -113.2011,-24.67529 -47.061144,-11.19292 -8.39469,-1.10403 27.727914,-31.72684 0.84456,-0.36631 40.8745,-17.67972 c 0,0 18.31569,1.01753 21.93304,12.95326 a 14.413426,14.413426 0 0 1 0.50877,2.57437 14.937458,14.937458 0 0 1 -2.88981,10.45011 c -1.44491,1.97403 -3.22051,4.77734 -3.78016,7.24487 -0.31543,1.39403 -0.24421,2.68122 0.50877,3.66314 a 29.859654,29.859654 0 0 0 5.02664,4.01419 c 9.96679,6.614 35.16103,17.51183 79.17464,0.81912 0,0 18.82445,-18.57007 33.06998,-10.68415 14.24553,7.88592 17.80692,65.37682 17.80692,65.37682 z"
     id="path155"
     inkscape:connector-curvature="0"
     style="fill:#e1dee5;stroke-width:0.50876904" />
  <path
     d="m 160.67974,293.10465 c -0.31543,1.39403 -0.2442,2.68122 0.50877,3.66314 a 29.859654,29.859654 0 0 0 5.02664,4.01419 l -85.686884,6.41558 23.484784,-29.6358 40.8745,-17.67972 c 0,0 18.31569,1.01753 21.93304,12.95326 a 14.413426,14.413426 0 0 1 0.50877,2.57437 14.937458,14.937458 0 0 1 -2.88981,10.45011 c -1.42456,1.97403 -3.20016,4.77734 -3.75981,7.24487 z"
     id="path157"
     inkscape:connector-curvature="0"
     style="opacity:0.1;stroke-width:0.50876904" />
  <polygon
     points="242.97,461.94 380.97,464.94 380.97,630.13 249.97,718.94 218.47,689.94 224.97,593.94 218.47,504.44 "
     id="polygon159"
     transform="matrix(0.50876902,0,0,0.50876902,-46.648723,-58.57684)"
     style="fill:#a36468" />
  <path
     d="m 37.028516,162.70715 81.972874,-25.26038 a 12.419052,12.419052 0 0 1 4.55348,-0.50877 l 195.8252,14.29132 a 92.504383,92.504383 0 0 1 46.63376,16.44851 c 12.67344,8.93907 25.22477,22.66057 31.03491,43.4387 a 82.954789,82.954789 0 0 1 -0.83946,46.72026 l -17.29815,55.96459 c 0,0 12.97361,-121.5958 -116.50811,-127.70103 z"
     id="path161"
     inkscape:connector-curvature="0"
     style="fill:#d9d6df;stroke-width:0.50876904" />
  <path
     d="m 80.528266,174.66323 v 134.99168 c 0,0 -22.46215,-3.15946 -26.45599,-7.54504 -3.27647,-3.597 -22.25864,-13.73677 -30.49561,-24.1818 -1.80613,-2.28946 -3.0984,-4.57892 -3.59191,-6.85311 C 17.227226,258.51854 5.9936073,228.84713 5.9936073,228.84713 l 3.052619,-28.99984 12.7192197,-18.82445 24.6753,-11.19292 h 19.07884 z"
     id="path163"
     inkscape:connector-curvature="0"
     style="fill:#b8797d;stroke-width:0.50876904" />
  <path
     d="m 44.914436,176.44392 c 0,0 -36.5092597,22.8946 -28.52159,59.73457 0.65122,3.00174 1.21596,6.01874 1.58736,9.07135 1.46017,11.91537 10.22117,46.15553 62.54806,61.94772 v 3.56138 l -22.19759,-6.19172 -15.06974,-8.3082 -11.50327,-10.31783 -14.06237,-17.1557 -6.52751,-13.99114 -2.3912097,-18.42762 -1.378766,-21.0376 3.3629657,-18.04603 7.93171,-11.74239 9.66661,-7.51452 z"
     id="path165"
     inkscape:connector-curvature="0"
     style="fill:#d9d6df;stroke-width:0.50876904" />
  <path
     d="m 80.528266,174.66323 v 21.47514 c -15.92447,1.72981 -65.22927,11.70168 -56.47336,68.68381 l -0.48333,13.08554 c -1.80613,-2.28946 -3.0984,-4.57892 -3.59191,-6.85312 C 17.222136,258.49818 5.9885203,228.82678 5.9885203,228.82678 l 3.052616,-28.99984 12.7192197,-18.82445 24.6753,-11.19292 h 19.07884 z"
     id="path167"
     inkscape:connector-curvature="0"
     style="opacity:0.1;stroke-width:0.50876904" />
  <path
     d="m 164.4599,285.85978 c -1.44491,1.97403 -3.22051,4.77734 -3.78016,7.24487 -2.21823,-2.54384 -2.69647,-5.46926 0.50877,-7.78416 4.01419,-2.92034 5.35225,-7.98768 5.65243,-12.48519 a 14.413426,14.413426 0 0 1 0.50877,2.57437 14.937458,14.937458 0 0 1 -2.88981,10.45011 z"
     id="path169"
     inkscape:connector-curvature="0"
     style="opacity:0.1;fill:#ffffff;stroke-width:0.50876904" />
  <path
     d="m 370.01785,299.56602 -9.66662,32.8156 -21.87706,21.3683 -27.47353,5.59646 -42.7366,-7.63154 V 199.84729 c 0,0 7.37715,-4.8333 8.14031,-4.8333 0.76315,0 21.36829,3.307 21.36829,3.307 l 46.65412,33.46173 1.93333,1.38894 20.85953,31.03491 z"
     id="path171"
     inkscape:connector-curvature="0"
     style="fill:#b8797d;stroke-width:0.50876904" />
  <polygon
     points="627.07,495.44 618.97,495.44 618.97,806.44 627.07,807.89 "
     id="polygon173"
     transform="matrix(0.50876902,0,0,0.50876902,-46.648723,-58.57684)"
     style="fill:#a36468" />
  <path
     d="m 345.34255,242.32951 c -30.52614,-25.08232 -64.46104,-28.77089 -77.07851,-29.22878 v -13.228 c 0,0 7.37715,-4.83331 8.14031,-4.83331 0.76315,0 21.36829,3.307 21.36829,3.307 l 46.65412,33.46174 z"
     id="path175"
     inkscape:connector-curvature="0"
     style="opacity:0.1;stroke-width:0.50876904" />
  <path
     d="M 261.81794,183.3123 70.607276,162.45277 49.116866,161.31313 a 44.166239,44.166239 0 0 0 -35.72067,14.93237 c -11.1929177,12.87185 -19.6537467,35.57821 -7.2957467,74.56518 0,0 12.8871167,50.53603 75.2978167,61.39316 L 262.7439,353.29712 c 4.01927,0.91069 7.98767,2.03507 11.90519,3.31208 16.46377,5.40822 72.2452,19.41972 98.52312,-28.21124 9.00522,-16.33148 11.70169,-35.37471 8.23189,-53.70566 -6.324,-33.52788 -30.20053,-90.42352 -119.58616,-91.38 z m 93.67964,142.90813 c -24.52267,39.94854 -75.05361,28.05861 -90.24545,23.36776 -3.7191,-1.14982 -7.48399,-2.15209 -11.29467,-2.96612 L 86.440166,310.78438 c -57.71476,-9.47837 -69.63522,-53.60391 -69.63522,-53.60391 -9.7429237,-28.99983 -5.48453,-47.71236 2.39122,-59.5565 8.24714,-12.3987 22.6046,-19.33322 37.48101,-18.58024 l 19.80129,1.01753 171.027804,22.84882 c 3.45962,0.46298 6.94469,0.76824 10.43485,0.88526 76.05588,2.57946 99.71873,44.40027 105.73238,73.22204 3.53085,16.84534 0.84455,34.51998 -8.17592,49.20305 z"
     id="path177"
     inkscape:connector-curvature="0"
     style="fill:#e1dee5;stroke-width:0.50876904" />
  <path
     d="m 56.046306,210.14478 c -1.9842,1.97911 18.82445,-6.54277 14.07255,-6.93961 -4.7519,-0.39684 -14.07255,6.93961 -14.07255,6.93961 z"
     id="path209"
     inkscape:connector-curvature="0"
     style="opacity:0.1;stroke-width:0.50876904" />
  <rect
     style="opacity:0.1;fill:#6c63ff;stroke-width:0.50876904"
     x="247.27225"
     y="77.50869"
     width="15.537807"
     height="4.1210294"
     id="rect49" />
  <rect
     style="opacity:0.1;fill:#6c63ff;stroke-width:0.50876904"
     x="247.27225"
     y="83.379906"
     width="15.537807"
     height="12.032387"
     id="rect51" />
  <rect
     style="opacity:0.1;fill:#6c63ff;stroke-width:0.50876904"
     x="247.27225"
     y="114.62344"
     width="15.537807"
     height="17.90867"
     id="rect53" />
  <rect
     style="opacity:0.1;fill:#6c63ff;stroke-width:0.50876904"
     x="-209.04333"
     y="-100.53561"
     width="13.10589"
     height="11.655898"
     transform="scale(-1)"
     id="rect71" />
  <rect
     style="opacity:0.1;fill:#6c63ff;stroke-width:0.50876904"
     x="-209.04333"
     y="-129.28102"
     width="13.10589"
     height="11.655898"
     transform="scale(-1)"
     id="rect87" />
  <rect
     style="opacity:0.1;fill:#6c63ff;stroke-width:0.50876904"
     x="-209.04333"
     y="-158.03157"
     width="13.10589"
     height="11.655898"
     transform="scale(-1)"
     id="rect91-0" />
  <rect
     style="opacity:0.1;fill:#6c63ff;stroke-width:0.50876904"
     x="-159.00081"
     y="-158.03157"
     width="13.10589"
     height="11.655898"
     transform="scale(-1)"
     id="rect93" />
  <path
     inkscape:connector-curvature="0"
     style="fill:url(#e507827f-2863-48fa-82fe-b741cb149057-0);stroke-width:0.50876904"
     d="m 56.397356,271.67531 c 6.26295,4.19226 15.77184,2.19788 15.77184,2.19788 0,0 14.3422,-6.79206 18.58025,-6.79206 4.23804,0 14.545704,-4.19735 14.545704,-4.19735 l -0.35105,-2.82875 -1.04806,-8.52188 c 6.5275,5.08769 13.78255,3.33243 17.35411,2.96103 3.83611,-0.39684 24.33442,-12.58186 26.30844,-13.38571 0.53421,-0.21368 1.15999,-0.9107 1.79596,-1.81122 v 0 a 46.180964,46.180964 0 0 0 3.4698,-6.33926 v 0 c 1.2821,-1.12947 2.21823,-2.03508 2.15209,-2.2335 -0.0661,-0.19842 0.50877,-1.68402 1.25666,-3.35787 2.91016,-0.50877 5.41839,-1.58736 6.21716,-2.23859 a 5.4285655,5.4285655 0 0 0 2.03508,-4.39576 c 0,0 19.99971,-20.17269 17.36937,-28.56229 -2.63033,-8.3896 6.46646,-8.59311 6.46646,-8.59311 0,0 13.93518,-5.9933 15.87359,-9.58521 1.19561,-2.21314 11.65081,-7.07189 19.51638,-10.48064 l 0.96666,-0.41719 c 3.05261,6.69031 18.55989,1.52631 21.61251,-1.28719 3.23068,-2.99665 12.71922,-4.39576 12.71922,-4.39576 0,0 0.40702,-39.17522 3.43419,-44.15098 1.43982,-2.36577 1.78578,-10.09906 1.75017,-17.56779 0,-0.26456 0,-0.50877 0,-0.79368 4.24313,-0.82929 14.33711,-2.74735 19.02287,-3.21033 2.97121,-0.29509 6.06962,-2.14701 8.44557,-3.94805 l 0.27982,0.35105 a 5.7999668,5.7999668 0 0 0 2.57946,0.42228 3.9480476,3.9480476 0 0 0 2.26402,-0.42228 c 1.8214,-1.01754 8.48627,-2.99665 10.90801,-3.99384 2.42174,-0.99719 -0.40193,-8.19118 -2.21823,-9.59029 -1.81631,-1.39912 -3.05262,-3.19507 -2.03508,-3.99384 1.01754,-0.79877 -2.42174,-2.79823 -4.44155,-3.20016 -2.01981,-0.40193 -8.07925,-3.19507 -8.07925,-3.19507 0,0 -2.22332,-4.57892 -5.85594,-4.57892 -3.63261,0 -8.48626,-3.597 -8.48626,-3.597 -0.19842,-1.59753 -4.03963,-1.79595 -4.03963,-1.79595 0,0 -14.54062,-11.19292 -16.96745,-9.78872 -2.42682,1.40421 -9.08661,-2.19788 -9.08661,-2.19788 0,0 -8.17592,0.91579 -10.09907,-0.59017 v 0 a 2.2691098,2.2691098 0 0 0 -0.50876,-1.35333 c -0.43246,-1.35332 -2.54385,-3.20524 -4.57893,-4.74681 a 18.010423,18.010423 0 0 0 0.23404,-2.88981 c 0,-0.41719 0,-0.83438 -0.0458,-1.24648 0,-0.0712 0,-0.13737 0,-0.2086 l 0.29,-2.81349 a 5.8101422,5.8101422 0 0 1 0.7021,-2.6456 c 0.34087,-0.50877 0.84456,-0.94122 1.22613,-1.4449 a 3.5919093,3.5919093 0 0 0 0.24421,-0.37141 l 0.0611,-0.10684 a 3.3273494,3.3273494 0 0 0 0.15263,-0.30017 l 0.0458,-0.10175 a 4.8841826,4.8841826 0 0 0 0.25948,-0.85474 v -0.0661 c 0.0254,-0.13228 0.0458,-0.26456 0.061,-0.40192 a 0.22894606,0.22894606 0 0 1 0,-0.056 8.5218811,8.5218811 0 0 0 -0.45789,-3.4291 c -0.60544,-1.88753 -1.55175,-3.70893 -1.6535,-5.67786 -0.0509,-0.97684 0.11193,-1.97403 -0.10176,-2.9305097 -0.50877,-2.18262 -2.73209,-3.56139 -4.89436,-4.47717 -2.98647,-1.25157 -4.49243,-2.62016 -6.88873,-4.48226003 -2.03507,-1.57718 -5.40312,-0.7835 -7.96732,-0.62069 -5.86102,0.37649 -11.64572,2.14191003 -17.16078,3.96331003 -2.14192,0.71227 -4.32454,1.5263 -5.9933,2.9763 a 6.6139973,6.6139973 0 0 0 -2.19279,3.7038297 v 0 a 4.8434811,4.8434811 0 0 0 -0.0661,1.01754 c 0,0.0305 0,0.061 0,0.0865 0,0.13228 0,0.25947 0.0458,0.38667 a 0.95139807,0.95139807 0 0 0 0,0.12719 3.0017372,3.0017372 0 0 0 0.11193,0.45789 v 0 c 0.23403,0.73772 0.66648,1.4042 0.91578,2.13683 a 4.1769937,4.1769937 0 0 1 0.13737,0.50877 c 0,0 0,0.0356 0,0.0509 0.0356,0.1628 0.061,0.32052 0.0814,0.50877 v 0 c 0.22386,1.8163 -0.44772,3.71401 -0.7428,5.56593 -0.0407,0.25947 -0.0712,0.50877 -0.0916,0.79368 v 0 0 a 9.4834546,9.4834546 0 0 0 0.27982,3.18998 0.09666611,0.09666611 0 0 0 0,0.0356 c 0.0305,0.1272 0.0763,0.25439 0.11702,0.37649 a 1.5263071,1.5263071 0 0 0 0.0509,0.16281 c 0.0356,0.10684 0.0814,0.21368 0.1221,0.31544 l 0.0865,0.21368 c 0.0407,0.0916 0.0865,0.18316 0.13228,0.27473 0.0458,0.0916 0.0763,0.15264 0.11702,0.22386 a 2.7778789,2.7778789 0 0 0 0.13737,0.24421 c 0.0458,0.0814 0.0967,0.15772 0.14754,0.23404 0.0509,0.0763 0.0967,0.14754 0.15263,0.21877 0.056,0.0712 0.11702,0.15772 0.17807,0.23403 l 0.15772,0.19333 0.21368,0.22386 0.16789,0.16789 0.2493,0.21369 c 0.0611,0.0458 0.11193,0.0967 0.17298,0.13737 0.0611,0.0407 0.2086,0.14754 0.31544,0.21368 l 0.14754,0.10175 c 0.16281,0.0967 0.33579,0.18316 0.50877,0.26456 1.15999,0.50877 2.62525,0.71737 3.32226,1.73999 a 2.1470053,2.1470053 0 0 1 0.34088,0.79368 c 0,0.0661 0,0.13737 0,0.20351 v 0.17807 c 0,0.59017 0.0407,1.17526 0.10175,1.75016 a 6.4766296,6.4766296 0 0 0 0.056,0.94631 2.7117389,2.7117389 0 0 0 0.19333,0.68684 18.152879,18.152879 0 0 0 6.10523,10.28731 c 0.0611,0.31035 0.13228,0.67158 0.20859,1.07859 a 20.203218,20.203218 0 0 1 -5.87628,3.05262 c -4.84857,1.41946 -11.70169,7.96732 -11.70169,7.96732 0,0 -3.40875,24.56846 -4.22787,27.56511 -0.81912,2.99664 -1.42455,14.5864 -1.42455,14.5864 0,0 -0.80894,4.79261 -2.03508,7.18891 -0.85982,1.68911 -0.7021,8.94925 1.68912,13.36027 a 11.142042,11.142042 0 0 1 -1.48561,2.42174 c -4.84857,5.59646 -19.39428,5.39296 -24.24284,5.39296 -4.46191,0 -5.84067,2.70665 -6.02892,3.13401 -8.87802,2.54385 -37.62347,10.72485 -41.03221,12.21046 -4.03963,1.76543 -6.262954,19.21112 -6.262954,19.21112 0,0 -8.44048,28.95913 -8.03855,32.75455 0.40193,3.79541 -2.82876,14.36763 -2.82876,14.36763 0,0 0,11.95099 -1.36859,12.75993 a 0.12719226,0.12719226 0 0 1 -0.0407,0.0254 c -1.41437,0.60035 -1.21595,6.39523 -1.21595,6.39523 0,0 1.04297,0.30017 2.66594,0.71227 -0.43245,2.92543 -2.03507,7.02102 -3.27138,9.93117 -0.63087,-0.79876 -1.24648,-1.12946 -1.6128,-0.2035 -1.01754,2.54384 -16.1585,20.52374 -19.99971,20.52374 -1.82648,0 -4.84857,1.49578 -6.83785,3.51559 -2.17753,2.22332 -3.10349,5.07752 0.18315,7.27031 z M 125.86977,167.59643 c 17.17095,1.59754 35.55278,-1.21595 35.55278,-1.21595 0,0 -1.41438,5.01137 -2.62525,7.01083 -1.21087,1.99947 -4.65015,13.38572 -4.65015,15.77184 0,2.38613 -5.454,22.97092 -7.0668,23.96811 -0.67666,0.42228 -1.2821,1.47034 -1.76034,2.54385 a 23.881618,23.881618 0 0 0 -1.06842,3.05261 q 0.0356,0.77842 0.13737,1.48052 c -1.20578,1.10403 -2.48279,2.26402 -3.61735,3.29173 v 0 c 0,0 -7.22452,4.01928 -9.66661,6.21716 -2.44209,2.19788 -13.73676,4.89436 -13.73676,4.89436 a 70.316966,70.316966 0 0 0 -8.14031,4.14647 c -3.50542,2.11139 -7.01083,4.79769 -7.92661,7.44838 0.39684,-4.467 1.04297,-9.84469 1.47543,-13.26361 l 0.64105,-0.0254 c 5.66259,-0.35105 4.81803,-5.75418 4.51786,-7.09224 -0.0407,-0.19333 -0.0712,-0.30018 -0.0712,-0.30018 4.03963,-4.39576 13.12624,-37.14013 11.91537,-40.75239 -1.21087,-3.61226 1.01754,-6.79207 1.4907,-6.79207 0.47315,0 1.13455,-3.99384 0.12719,-6.19172 -1.00736,-2.19788 4.47208,-4.19226 4.47208,-4.19226 z m 138.84306,-88.12897 -1.0735,0.26456 v -0.22894 c 0,0 0.39175,0 1.0735,-0.0356 z M 206.02124,49.3229 c -0.16281,0.20351 -0.32561,0.39684 -0.50877,0.58508 l -0.20859,0.21369 c 0,-0.3714 0,-0.74789 0,-1.10912 0.2442,0.0967 0.47824,0.21368 0.71736,0.31035 z m -20.23374,38.75802 0.0712,1.12438 c 0,0 -0.10684,0.68684 -0.31035,1.8621 z m 92.8249,-11.16239 -3.52577,0.60544 c 0.50877,-0.18825 0.9921,-0.39176 1.47035,-0.6207 a 3.383314,3.383314 0 0 1 1.12438,-0.30526 6.4562789,6.4562789 0 0 1 1.31262,0.27982 2.4319159,2.4319159 0 0 0 -0.38158,0.0407 z"
     id="path179" />
  <path
     inkscape:connector-curvature="0"
     style="fill:#efb7b9;stroke-width:0.50876904"
     d="m 159.41291,221.14437 c 0,0 -4.07015,8.39978 -3.86156,8.99504 0.2086,0.59526 -8.72539,7.72311 -8.72539,7.72311 l -9.7124,-6.93452 1.01754,-4.76208 c 0,0 10.90292,-9.82433 11.70169,-10.95888 0.79877,-1.13456 9.58012,5.93733 9.58012,5.93733 z"
     id="path181" />
  <path
     inkscape:connector-curvature="0"
     style="fill:#67647e;stroke-width:0.50876904"
     d="m 104.00797,249.56421 c 6.74118,6.54277 14.6678,4.57892 18.43778,4.16682 3.76998,-0.4121 23.88162,-12.49028 25.81494,-13.28396 0.50877,-0.21368 1.14473,-0.90561 1.76543,-1.80104 v 0 a 45.74851,45.74851 0 0 0 3.40367,-6.29347 c -0.13228,0.0356 -6.72593,1.92314 -8.38961,0 0,0 -2.77787,-3.40367 -3.37313,-3.40367 -0.59526,0 -0.0458,-5.97295 -0.0458,-5.97295 0,0 -7.09224,3.98875 -9.46819,6.17137 -2.37596,2.18262 -13.48238,4.85366 -13.48238,4.85366 a 68.175049,68.175049 0 0 0 -7.9775,4.11594 c -5.2505,3.20524 -10.54169,7.7282 -6.68522,11.4473 z"
     id="path183" />
  <path
     inkscape:connector-curvature="0"
     style="opacity:0.1;stroke-width:0.50876904"
     d="m 104.00797,249.56421 c 6.74118,6.54277 14.6678,4.57892 18.43778,4.16682 3.76998,-0.4121 23.88162,-12.49028 25.81494,-13.28396 0.50877,-0.21368 1.14473,-0.90561 1.76543,-1.80104 -2.34542,-1.39912 -17.66955,8.34381 -21.95847,10.12959 -4.28892,1.78578 -15.14097,0.78859 -21.30216,-1.78578 -3.05261,-1.28719 0.0407,-5.24032 3.91752,-8.87293 -5.24032,3.20524 -10.53151,7.7282 -6.67504,11.4473 z"
     id="path185" />
  <path
     inkscape:connector-curvature="0"
     style="fill:#efb7b9;stroke-width:0.50876904"
     d="m 104.80165,228.94889 c 0,0 -2.82367,21.21058 -2.10631,23.98846 0.71737,2.77788 -17.720424,-9.51398 -17.720424,-9.51398 0,0 6.45119,-13.29414 4.57892,-16.34675 -1.87227,-3.05261 15.247814,1.87227 15.247814,1.87227 z"
     id="path187" />
  <path
     inkscape:connector-curvature="0"
     style="fill:#444053;stroke-width:0.50876904"
     d="m 87.157536,229.34573 c 0,0 11.49818,3.36805 17.837444,2.97121 5.55575,-0.34596 4.72646,-5.70839 4.43646,-7.03627 -0.0407,-0.18825 -0.0712,-0.29509 -0.0712,-0.29509 3.96331,-4.36524 12.88712,-36.87558 11.70169,-40.44205 -1.18543,-3.56647 0.96666,-6.71575 1.47543,-6.71575 0.50877,0 1.11421,-3.9684 0.12211,-6.14593 -0.9921,-2.17753 4.36523,-4.16173 4.36523,-4.16173 16.85043,1.58227 34.89138,-1.21087 34.89138,-1.21087 0,0 -1.38894,4.97576 -2.57946,6.95996 -1.19052,1.9842 -4.57892,13.27887 -4.57892,15.65991 0,2.38104 -5.35225,22.79794 -6.93961,23.79004 -0.6614,0.41719 -1.25666,1.45508 -1.72472,2.54384 a 23.784952,23.784952 0 0 0 -1.04807,3.05262 c 0.59526,13.28396 15.65991,8.1403 17.84253,6.34435 a 5.8508437,5.8508437 0 0 0 0.84456,-0.86491 5.5455823,5.5455823 0 0 0 1.13455,-3.50033 c 0,0 19.62831,-20.02006 17.04885,-28.34861 -2.57946,-8.32855 6.34435,-8.52188 6.34435,-8.52188 0,0 13.6808,-5.94751 15.5836,-9.51907 1.17525,-2.19279 11.43204,-7.01084 19.15515,-10.39924 4.8384,-2.12157 8.6796,-3.67331 8.6796,-3.67331 l -3.21542,-11.52871 -2.54384,-9.0917 -4.77226,-1.79087 -15.26307,-5.73891 -27.38195,-3.84121 -2.50823,0.32561 -26.60353,3.44437 c 0,0 -38.83943,11.11152 -42.80783,12.85151 -3.96839,1.73999 -6.14592,19.06357 -6.14592,19.06357 0,0 -8.323464,28.74545 -7.916454,32.53069 0.40702,3.78524 -2.77788,14.24554 -2.77788,14.24554 0,0 0,11.8594 -1.34823,12.66326 a 0.07122766,0.07122766 0 0 1 -0.0407,0 c -1.39403,0.65122 -1.19561,6.37996 -1.19561,6.37996 z"
     id="path189" />
  <path
     inkscape:connector-curvature="0"
     style="opacity:0.1;stroke-width:0.50876904"
     d="m 127.00432,167.49468 c 16.85043,1.58227 34.89138,-1.21087 34.89138,-1.21087 1.19052,-3.74963 17.85271,-14.05729 17.85271,-14.05729 -13.67063,-3.36805 -52.74409,15.26816 -52.74409,15.26816 z"
     id="path191" />
  <path
     inkscape:connector-curvature="0"
     style="fill:#444053;stroke-width:0.50876904"
     d="m 145.04527,218.24439 c 0.59526,13.28396 15.65991,8.1403 17.84253,6.34435 a 5.8508437,5.8508437 0 0 0 0.84456,-0.86491 c -5.26576,1.93841 -14.60167,3.43928 -17.63902,-8.5117 a 23.784952,23.784952 0 0 0 -1.04807,3.03226 z"
     id="path193" />
  <path
     inkscape:connector-curvature="0"
     style="fill:#444053;stroke-width:0.50876904"
     d="m 87.157536,229.34573 c 0,0 11.49818,3.36805 17.837444,2.97121 5.55575,-0.34596 4.72646,-5.70839 4.43646,-7.03627 -5.82031,-0.18316 -15.843064,-0.72754 -21.047774,-2.30473 a 0.07122766,0.07122766 0 0 1 -0.0407,0 c -1.38385,0.64105 -1.18543,6.36979 -1.18543,6.36979 z"
     id="path195" />
  <path
     inkscape:connector-curvature="0"
     style="opacity:0.1;stroke-width:0.50876904"
     d="m 145.04527,218.24439 c 0.59526,13.28396 15.65991,8.1403 17.84253,6.34435 a 5.8508437,5.8508437 0 0 0 0.84456,-0.86491 c -5.26576,1.93841 -14.60167,3.43928 -17.63902,-8.5117 a 23.784952,23.784952 0 0 0 -1.04807,3.03226 z"
     id="path197" />
  <path
     inkscape:connector-curvature="0"
     style="opacity:0.1;stroke-width:0.50876904"
     d="m 87.157536,229.34573 c 0,0 11.49818,3.36805 17.837444,2.97121 5.55575,-0.34596 4.72646,-5.70839 4.43646,-7.03627 -5.82031,-0.18316 -15.843064,-0.72754 -21.047774,-2.30473 a 0.07122766,0.07122766 0 0 1 -0.0407,0 c -1.38385,0.64105 -1.18543,6.36979 -1.18543,6.36979 z"
     id="path199" />
  <path
     inkscape:connector-curvature="0"
     style="fill:#67647e;stroke-width:0.50876904"
     d="m 58.803836,270.77988 c 6.14593,4.16173 15.46658,2.17753 15.46658,2.17753 0,0 14.07255,-6.7361 18.23937,-6.7361 4.16682,0 14.255704,-4.16682 14.255704,-4.16682 l -0.34087,-2.80332 -1.63824,-13.45185 c 0,0 -15.441134,-0.39684 -16.061834,-1.78578 0,0 -2.77279,-6.82768 -3.76489,-4.30418 -0.9921,2.52349 -15.85833,20.35076 -19.62831,20.35076 -1.79596,0 -4.76208,1.4856 -6.71067,3.49015 -2.12156,2.22332 -3.03226,5.05208 0.18316,7.22961 z"
     id="path201" />
  <path
     inkscape:connector-curvature="0"
     style="opacity:0.1;stroke-width:0.50876904"
     d="m 112.133,153.61546 c 0,0 12.88712,8.14031 9.32065,9.91082 -3.56647,1.77052 -9.32065,-9.91082 -9.32065,-9.91082 z"
     id="path203" />
  <path
     inkscape:connector-curvature="0"
     style="opacity:0.1;stroke-width:0.50876904"
     d="m 106.76549,169.27537 c 0,0 11.10134,10.5417 6.93961,10.82152 -4.16173,0.27982 -6.93961,-10.82152 -6.93961,-10.82152 z"
     id="path205" />
  <path
     inkscape:connector-curvature="0"
     style="opacity:0.1;stroke-width:0.50876904"
     d="m 94.885736,202.75746 c 0,0 5.637164,10.59766 3.51559,12.43432 -2.12156,1.83665 -3.51559,-12.43432 -3.51559,-12.43432 z"
     id="path207" />
  <path
     inkscape:connector-curvature="0"
     style="opacity:0.1;stroke-width:0.50876904"
     d="m 156.94029,213.4874 c -1.9842,1.97911 18.82446,-6.54277 14.07255,-6.93961 -4.7519,-0.39684 -14.07255,6.93961 -14.07255,6.93961 z"
     id="path209-6" />
  <path
     inkscape:connector-curvature="0"
     style="fill:#efb7b9;stroke-width:0.50876904"
     d="m 198.56777,64.79965 0.66649,-0.0967 c 2.46244,-0.37649 11.40151,-1.78069 19.41971,-3.52068 1.95368,-0.42737 3.8463,-0.87 5.59646,-1.32789 6.14085,-1.60771 10.26187,-3.34261 7.63154,-4.76717 -3.47998,-1.88753 -5.31155,-5.31663 -6.27821,-8.26749 -0.0916,-0.29 -0.17807,-0.56983 -0.25947,-0.84965 a 22.034786,22.034786 0 0 1 -0.79877,-4.57892 c 0,0 -22.38584,-7.93171 -18.04095,0 2.14192,3.89208 0.7021,7.0668 -1.31771,9.29012 a 17.440602,17.440602 0 0 1 -4.82822,3.597 z"
     id="path211" />
  <path
     inkscape:connector-curvature="0"
     style="opacity:0.1;stroke-width:0.50876904"
     d="m 222.55623,58.65372 c 0,0 -8.01311,5.74909 -16.1992,0.9921 -8.1861,-4.75699 -18.8906,42.02941 -18.8906,42.02941 l -11.10134,27.35651 c 0,0 -7.1889,5.94751 1.76034,8.52697 8.94925,2.57946 28.80142,-2.57946 33.84332,4.95541 5.0419,7.53487 14.58641,8.7203 15.56324,8.7203 0.97684,0 4.75191,-28.3537 4.75191,-28.3537 l 0.98192,-41.0373 z"
     id="path213" />
  <path
     inkscape:connector-curvature="0"
     style="fill:#f3f5f9;stroke-width:0.50876904"
     d="m 178.50192,135.97135 c 8.94925,2.57437 28.80651,-2.57946 33.84841,4.95541 a 19.363749,19.363749 0 0 0 8.54223,6.88365 22.385837,22.385837 0 0 0 7.03627,1.86209 c 0.1272,0 0.31544,-0.50877 0.53421,-1.41946 1.39403,-5.73892 4.2177,-26.93424 4.2177,-26.93424 l 0.97683,-41.03731 -9.41731,-20.42707 -1.28719,-2.78806 a 16.987798,16.987798 0 0 1 -4.07015,1.98929 c -3.0984,1.04807 -7.58066,1.63824 -12.11888,-1.01754 -2.40139,-1.39402 -5.02155,1.64841 -7.5196,6.64453 -6.02383,12.0273 -11.37099,35.38488 -11.37099,35.38488 l -11.11152,27.39213 a 9.4224023,9.4224023 0 0 0 -0.75297,0.72245 c -1.57719,1.64841 -4.53314,5.76435 2.49296,7.78925 z"
     id="path215" />
  <path
     inkscape:connector-curvature="0"
     style="opacity:0.1;stroke-width:0.50876904"
     d="m 221.15712,137.35012 a 52.006369,52.006369 0 0 0 -0.26456,10.43994 122.27246,122.27246 0 0 0 1.86209,14.7543 5.8152299,5.8152299 0 0 0 0.24421,0.90052 c 4.8384,-2.12157 8.6796,-3.67331 8.6796,-3.67331 l -3.21542,-11.52871 c 1.39403,-5.73891 4.2177,-26.93423 4.2177,-26.93423 l 0.97683,-41.03731 -9.41731,-20.4169 c 6.14084,-1.60771 10.26187,-3.34261 7.63153,-4.76717 -3.81576,-2.07069 -5.65242,-5.99838 -6.53768,-9.11714 a 33.095425,33.095425 0 0 1 -5.6219,6.06453 l -0.1221,0.10175 -0.71228,6.91926 -0.21877,2.12666 -0.45789,4.41102 c 0,0 2.18262,52.13865 3.76489,55.11495 1.58227,2.9763 0.79368,8.7203 -0.59017,15.46149 -0.0865,0.38158 -0.13737,0.77333 -0.21877,1.18035 z"
     id="path217" />
  <path
     inkscape:connector-curvature="0"
     style="fill:#67647e;stroke-width:0.50876904"
     d="m 222.15939,135.37609 c -1.38385,6.74119 -0.19842,17.84253 1.38894,26.36441 1.58736,8.52188 18.43779,2.9763 21.61251,0 3.17472,-2.9763 12.48519,-4.36015 12.48519,-4.36015 0,0 0.39684,-38.85469 3.37314,-43.8101 1.40929,-2.35051 1.75017,-10.02275 1.71455,-17.43551 -0.0254,-6.6547 -0.35614,-13.1008 -0.47824,-15.26307 -0.0305,-0.50877 -0.0458,-0.7886 -0.0458,-0.7886 0,0 12.88203,-21.80584 12.68361,-23.40337 -0.19842,-1.59754 -3.96331,-1.78069 -3.96331,-1.78069 0,0 -14.24553,-11.10134 -16.65201,-9.71749 -2.40648,1.38385 -8.92381,-2.17753 -8.92381,-2.17753 0,0 -8.28784,0.94122 -10.0024,-0.6614 a 0.87508272,0.87508272 0 0 1 -0.30526,-0.72754 c 0.19333,-2.54385 -8.44556,-7.95715 -8.71521,-8.14031 7.28557,6.55295 -4.49243,16.65201 -5.83049,17.76113 l -0.12211,0.10175 -1.38894,13.45695 c 0,0 2.18262,52.13864 3.76489,55.11494 1.58227,2.9763 0.79368,8.72539 -0.59526,15.46658 z"
     id="path219" />
  <circle
     style="fill:#444053;stroke-width:0.50876904"
     cx="222.92761"
     cy="78.739952"
     r="0.99209964"
     id="circle221" />
  <path
     inkscape:connector-curvature="0"
     style="opacity:0.1;stroke-width:0.50876904"
     d="m 220.89765,52.03464 6.02382,5.8254 8.82714,-14.7543 a 0.87508272,0.87508272 0 0 1 -0.30526,-0.72754 c 0.19333,-2.54384 -8.45065,-7.95714 -8.71521,-8.1403 7.28557,6.58856 -4.47208,16.68762 -5.83049,17.79674 z"
     id="path223" />
  <circle
     style="opacity:0.1;stroke-width:0.50876904"
     cx="224.91183"
     cy="110.45663"
     r="0.99209964"
     id="circle225" />
  <circle
     style="fill:#444053;stroke-width:0.50876904"
     cx="224.91183"
     cy="110.05978"
     r="0.99209964"
     id="circle227" />
  <path
     inkscape:connector-curvature="0"
     style="fill:#67647e;stroke-width:0.50876904"
     d="m 220.50081,51.24096 6.02382,5.8254 8.82714,-14.7543 a 0.87508272,0.87508272 0 0 1 -0.30526,-0.72754 c 0.19333,-2.54384 -8.44556,-7.95714 -8.71521,-8.1403 7.28557,6.58856 -4.49243,16.68253 -5.83049,17.79674 z"
     id="path229" />
  <rect
     style="fill:#d1d9ec;stroke-width:0.50876904"
     x="-230.43686"
     y="-101.80959"
     width="13.797816"
     height="29.152464"
     rx="0.86490738"
     ry="0.86490738"
     transform="rotate(-178.69)"
     id="rect231" />
  <rect
     style="fill:#dfe6f5;stroke-width:0.50876904"
     x="-230.52222"
     y="-102.45241"
     width="13.797816"
     height="29.152464"
     rx="0.86490738"
     ry="0.86490738"
     transform="rotate(-178.69)"
     id="rect233" />
  <circle
     style="fill:#ffffff;stroke-width:0.50876904"
     cx="221.91519"
     cy="86.931114"
     r="2.1673563"
     id="circle235" />
  <path
     inkscape:connector-curvature="0"
     style="opacity:0.1;stroke-width:0.50876904"
     d="m 147.2228,133.59031 c 4.95541,2.18262 37.47084,-3.56138 42.22783,-4.95541 4.75699,-1.39402 11.70169,-12.09344 8.32855,-19.84199 -3.37314,-7.74855 1.18543,-15.26307 1.18543,-15.26307 0,0 7.12277,-15.26307 8.72539,-18.23937 1.60262,-2.9763 4.89436,-11.63046 5.35225,-13.08045 a 1.1905195,1.1905195 0 0 0 -0.27982,-0.9107 c -1.29227,-1.94858 -6.27821,-5.41839 -6.27821,-5.41839 -1.39912,0.50877 -1.5721,-3.50542 -1.52631,-6.45119 0.0305,-1.64841 0.12719,-2.96103 0.12719,-2.96103 0,0 -0.65631,0.66648 -1.72981,1.57718 -0.39175,0.3307 -0.83947,0.69701 -1.33806,1.0735 a 20.569532,20.569532 0 0 1 -6.21716,3.41384 c -4.75699,1.40929 -11.49818,7.90627 -11.49818,7.90627 l 1.9842,30.44474 c 0,0 -4.57892,28.63352 -9.32065,34.18419 -4.74173,5.55067 -19.03305,5.35225 -23.79004,5.35225 -4.75699,0 -5.9526,3.16963 -5.9526,3.16963 z"
     id="path237" />
  <path
     inkscape:connector-curvature="0"
     style="fill:#67647e;stroke-width:0.50876904"
     d="m 146.82596,132.40488 c 4.95541,2.17753 37.47084,-3.56138 42.22783,-4.9605 4.75699,-1.39911 11.70169,-12.09344 8.32855,-19.84199 -3.37314,-7.74855 1.18543,-15.26307 1.18543,-15.26307 0,0 7.12277,-15.26307 8.72539,-18.23937 1.60262,-2.9763 4.89436,-11.63046 5.35225,-13.08045 a 1.1956072,1.1956072 0 0 0 -0.27982,-0.9107 c -1.30245,-1.94349 -6.26295,-5.40312 -6.26295,-5.40312 -1.39911,0.50876 -1.57209,-3.50033 -1.5263,-6.44611 0.0305,-1.6535 0.12719,-2.96612 0.12719,-2.96612 0,0 -0.65631,0.66649 -1.72982,1.58227 -0.39175,0.32561 -0.83947,0.69193 -1.33806,1.06842 a 20.569532,20.569532 0 0 1 -6.24768,3.41384 c -4.75699,1.40929 -11.49818,7.90627 -11.49818,7.90627 l 1.9842,30.44473 c 0,0 -4.57892,28.63353 -9.32065,34.1842 -4.74173,5.55067 -19.02796,5.35225 -23.79004,5.35225 -4.76208,0 -5.93734,3.15945 -5.93734,3.15945 z"
     id="path239" />
  <path
     inkscape:connector-curvature="0"
     style="opacity:0.1;stroke-width:0.50876904"
     d="m 200.75039,46.0566 c 0,0 0.18825,1.04298 0.50877,2.65069 1.06842,5.44383 3.61226,17.32867 5.44892,16.87078 1.31771,-0.3307 3.56138,-2.66086 5.27084,-4.67559 -1.28718,-1.96385 -6.26294,-5.43365 -6.26294,-5.43365 -1.39912,0.50877 -1.5721,-3.50033 -1.52631,-6.4461 l -1.60262,-1.38386 z"
     id="path241" />
  <path
     inkscape:connector-curvature="0"
     style="fill:#67647e;stroke-width:0.50876904"
     d="m 201.14723,45.27819 c 0,0 0.18825,1.04297 0.50877,2.65068 1.06842,5.44383 3.61226,17.32868 5.44892,16.87078 1.31771,-0.3307 3.56138,-2.66086 5.27084,-4.67558 -1.31262,-1.95876 -6.27312,-5.41839 -6.27312,-5.41839 -1.39911,0.50876 -1.57209,-3.50033 -1.5263,-6.44611 l -1.60263,-1.38385 z"
     id="path243" />
  <path
     inkscape:connector-curvature="0"
     style="fill:#efb7b9;stroke-width:0.50876904"
     d="m 188.45853,103.65434 c 0,0 9.91591,-1.97911 12.6887,-6.33926 2.77279,-4.36015 21.6583,-8.1403 19.33323,-3.56138 -2.32508,4.57892 -19.33323,19.48076 -19.33323,19.48076 l -7.38224,10.56714 -9.85994,-2.50315 -4.15664,-8.08434 z"
     id="path245" />
  <path
     inkscape:connector-curvature="0"
     style="opacity:0.1;stroke-width:0.50876904"
     d="m 211.91278,114.96937 c 0,0 -9.60047,3.56138 -11.04537,8.32346 -1.4449,4.76208 11.04537,-8.32346 11.04537,-8.32346 z"
     id="path247" />
  <path
     inkscape:connector-curvature="0"
     style="opacity:0.1;stroke-width:0.50876904"
     d="m 217.79924,120.50986 c 0,0 0.87509,4.95032 -11.1573,4.57892 z"
     id="path249" />
  <path
     inkscape:connector-curvature="0"
     style="opacity:0.1;stroke-width:0.50876904"
     d="m 269.73947,57.06636 4.36524,-0.39684 c 0,0 4.75699,3.56139 8.32346,3.56139 3.56647,0 5.74909,4.57892 5.74909,4.57892 0,0 5.94751,2.77788 7.93171,3.17472 1.9842,0.39684 5.35225,2.37595 4.36015,3.16963 -0.9921,0.79368 0.19842,2.57946 1.9842,3.96331 1.78578,1.38385 4.57892,8.52697 2.17753,9.51907 -2.40139,0.9921 -8.91872,2.97121 -10.68415,3.96331 -1.76543,0.9921 -3.96331,0 -3.96331,0 0,0 -10.50099,-13.6808 -15.85833,-11.10134 -5.35734,2.57946 -12.69379,2.56419 -12.69379,2.56419 l -5.74909,-12.08835 z"
     id="path251" />
  <path
     inkscape:connector-curvature="0"
     style="fill:#67647e;stroke-width:0.50876904"
     d="m 178.50192,122.30073 c 0.93614,1.39403 2.14701,2.37086 3.69875,2.56928 a 27.982296,27.982296 0 0 0 11.54397,-1.06841 c 0,0 -19.96918,-6.34435 -0.7428,-21.77023 h -5.13857 l -1.72981,-0.65122 0.7835,-4.10577 1.12947,-37.0333 -4.16173,-0.9921 c 0,0 -3.35279,24.3853 -4.15156,27.35651 -0.79876,2.97121 -1.39911,14.47448 -1.39911,14.47448 0,0 -0.79368,4.75699 -1.9842,7.12277 -0.90052,1.80104 -0.65122,9.86503 2.15209,14.09799 z"
     id="path253" />
  <path
     inkscape:connector-curvature="0"
     style="opacity:0.1;stroke-width:0.50876904"
     d="m 179.31087,122.30073 c 0.93104,1.39403 2.147,2.37086 3.69875,2.56928 a 27.982296,27.982296 0 0 0 11.54397,-1.06841 c 0,0 -19.96919,-6.34435 -0.74281,-21.78041 h -5.13348 l -1.71455,-0.65122 c -2.86437,5.01138 -7.29066,13.90975 -7.65188,20.93076 z"
     id="path255" />
  <path
     inkscape:connector-curvature="0"
     style="fill:none;stroke-width:0.50876904"
     d="m 178.50192,122.30073 c 0.93614,1.39403 2.14701,2.37086 3.69875,2.56928 a 27.982296,27.982296 0 0 0 11.54397,-1.06841 c 0,0 -19.96918,-6.34435 -0.7428,-21.77023 h -5.13857 l -1.72981,-0.65122 c -2.80841,5.0012 -7.25505,13.89957 -7.63154,20.92058 z"
     id="path257" />
  <path
     inkscape:connector-curvature="0"
     style="fill:#67647e;stroke-width:0.50876904"
     d="m 178.50192,122.30073 c 0.93614,1.39403 2.14701,2.37086 3.69875,2.56928 a 27.982296,27.982296 0 0 0 11.54397,-1.06841 c 0,0 -19.96918,-6.34435 -0.7428,-21.77023 h -5.13857 l -1.72981,-0.65122 c -2.80841,5.0012 -7.25505,13.89957 -7.63154,20.92058 z"
     id="path259" />
  <path
     inkscape:connector-curvature="0"
     style="opacity:0.1;stroke-width:0.50876904"
     d="m 205.18177,50.69658 a 18.046037,18.046037 0 0 0 20.4169,-3.87682 c -0.0916,-0.29 -0.17807,-0.56983 -0.25947,-0.84965 a 22.034786,22.034786 0 0 1 -0.79877,-4.57892 c 0,0 -22.38583,-7.93171 -18.04095,0 2.14192,3.90735 0.7021,7.08207 -1.31771,9.30539 z"
     id="path261" />
  <path
     inkscape:connector-curvature="0"
     style="fill:#efb7b9;stroke-width:0.50876904"
     d="m 194.60446,33.47474 v 0.17807 c 0,0.58509 0.0407,1.16508 0.10176,1.73491 0.0611,0.56982 0.14245,1.08876 0.24421,1.62297 a 18.046037,18.046037 0 0 0 34.7591,2.33016 c 0.1221,-0.35105 0.22894,-0.7021 0.32561,-1.05824 a 17.837442,17.837442 0 0 0 0.65122,-4.80787 c 0,-0.4121 0,-0.82929 -0.0458,-1.2363 a 18.040949,18.040949 0 0 0 -36.03611,1.2363 z"
     id="path263" />
  <path
     inkscape:connector-curvature="0"
     style="opacity:0.1;stroke-width:0.50876904"
     d="m 194.60446,33.65281 a 7.768903,7.768903 0 0 1 0.10176,1.73491 6.4461035,6.4461035 0 0 0 0.0509,0.94122 2.6710374,2.6710374 0 0 0 0.19334,0.68175 c 0.72754,1.70946 3.10857,2.81858 4.68067,1.71455 a 5.0164625,5.0164625 0 0 0 1.4042,-1.84174 c 1.66877,-3.09841 3.98366,-6.65979 7.63154,-6.72084 1.55683,-0.0305 3.017,0.62578 4.52296,1.01754 1.50595,0.39175 3.28664,0.42736 4.40593,-0.59526 0.86491,-0.7886 1.27193,-2.13175 2.42683,-2.40648 1.15491,-0.27474 2.22332,0.7835 2.75244,1.82139 0.52912,1.03789 0.9514,2.25894 2.03508,2.79823 0.47824,0.23404 1.01754,0.30526 1.52631,0.55965 2.15718,1.18034 1.16508,5.31663 3.40366,5.98821 a 1.6280609,1.6280609 0 0 0 0.21368,0.0509 c 0.0356,-0.36632 0.0763,-0.74281 0.11193,-1.10912 q 0.30526,-3.02209 0.60544,-6.04418 a 18.040949,18.040949 0 0 0 -36.03611,1.23631 z"
     id="path265" />
  <path
     inkscape:connector-curvature="0"
     style="fill:#585268;stroke-width:0.50876904"
     d="m 226.65182,6.5456003 c 2.12157,0.90052 4.32963,2.28437 4.80278,4.4466397 0.2086,0.9514 0.0509,1.93841 0.10176,2.90507 0.10175,1.95368 1.01753,3.76489 1.62297,5.63716 0.60544,1.87227 0.80894,4.07016 -0.38158,5.64734 -0.3714,0.50877 -0.8649,0.9107 -1.20069,1.42964 a 5.8508437,5.8508437 0 0 0 -0.69193,2.65577 l -0.98192,9.75819 c -2.51332,-0.47315 -1.39403,-4.8333 -3.62244,-6.04417 -0.46298,-0.25439 -1.01754,-0.32561 -1.50087,-0.56473 -1.0735,-0.50877 -1.49069,-1.75526 -2.03507,-2.79315 -0.54438,-1.03789 -1.57719,-2.10121 -2.75244,-1.82139 -1.17526,0.27982 -1.56192,1.62297 -2.42174,2.40648 -1.12438,1.01754 -2.91016,0.97683 -4.41103,0.59526 -1.50087,-0.38158 -2.96612,-1.01754 -4.51787,-1.01754 -3.65296,0.061 -5.97295,3.62243 -7.63153,6.72084 a 5.0317256,5.0317256 0 0 1 -1.40929,1.84683 c -1.77052,1.2414 -4.57893,-0.32561 -4.86892,-2.40139 -0.17299,-1.16508 0.19333,-2.46244 -0.47825,-3.44945 -0.67157,-0.98702 -2.12665,-1.19561 -3.26121,-1.72473 -2.89998,-1.33298 -3.79541,-4.95032 -3.31717,-7.98259 0.35105,-2.1877 1.22105,-4.43646 0.50877,-6.54277 -0.2493,-0.72754 -0.67158,-1.38894 -0.90052,-2.11648 -0.63596,-2.03507 0.40192,-4.2940097 2.03507,-5.7439997 1.63315,-1.44999 3.77507,-2.24876 5.88137,-2.95086 5.40822,-1.8163 11.08608,-3.56138 16.84026,-3.93787 2.5184,-0.16281 5.82032,-0.95140003 7.81978,0.6207 2.37595,1.82139 3.8412,3.1798 6.77171,4.4212 z"
     id="path267" />
  <circle
     style="opacity:0.1;stroke-width:0.50876904"
     cx="221.93555"
     cy="63.074909"
     r="0.99209964"
     id="circle269" />
  <circle
     style="fill:#444053;stroke-width:0.50876904"
     cx="221.93555"
     cy="62.678059"
     r="0.99209964"
     id="circle271" />
  <circle
     style="opacity:0.1;stroke-width:0.50876904"
     cx="228.27988"
     cy="125.3279"
     r="0.99209964"
     id="circle273" />
  <circle
     style="fill:#444053;stroke-width:0.50876904"
     cx="228.27988"
     cy="124.93105"
     r="0.99209964"
     id="circle275" />
  <circle
     style="opacity:0.1;stroke-width:0.50876904"
     cx="224.91183"
     cy="141.78151"
     r="0.99209964"
     id="circle277" />
  <circle
     style="fill:#444053;stroke-width:0.50876904"
     cx="224.91183"
     cy="141.38466"
     r="0.99209964"
     id="circle279" />
  <path
     inkscape:connector-curvature="0"
     style="opacity:0.1;stroke-width:0.50876904"
     d="m 190.83957,78.73992 c 0,0 -2.18262,14.80518 0,17.38464 2.18262,2.57946 0,-17.38464 0,-17.38464 z"
     id="path281" />
  <path
     inkscape:connector-curvature="0"
     style="opacity:0.1;stroke-width:0.50876904"
     d="m 255.66692,106.2338 c 0,0 4.16173,8.9696 0,17.5678 -4.16173,8.59819 -6.74119,12.09344 -5.35225,17.58305 1.38894,5.48962 5.35225,-35.15085 5.35225,-35.15085 z"
     id="path283" />
  <path
     inkscape:connector-curvature="0"
     style="opacity:0.1;stroke-width:0.50876904"
     d="m 58.803836,270.77988 c 6.14593,4.16173 15.46658,2.17753 15.46658,2.17753 0,0 14.07255,-6.7361 18.23937,-6.7361 4.16682,0 14.255704,-4.16682 14.255704,-4.16682 l -0.34087,-2.80332 c -4.10576,0.7886 -13.446764,2.67613 -14.525354,3.597 -1.38894,1.19052 -18.43779,6.93961 -18.43779,6.93961 0,0 -11.61011,-1.44999 -14.8408,-6.22225 -2.12156,2.20806 -3.03226,5.03682 0.18316,7.21435 z"
     id="path285" />
  <g
     transform="matrix(0.50876902,0,0,0.50876902,54.245266,-55.23422)"
     style="opacity:0.1"
     id="g293">
    <path
       inkscape:connector-curvature="0"
       d="m 450.28,168.67 c 0,-0.42 0,-0.84 0,-1.27 0,0.49 0,1 0,1.46 0.02,-0.06 0,-0.12 0,-0.19 z"
       transform="translate(-101.77,-35.91)"
       id="path287" />
    <path
       inkscape:connector-curvature="0"
       d="m 370.6,201.82 c 2.23,1 5,1.4 6.41,3.38 1.41,1.98 0.6,4.49 0.94,6.78 0.59,4.08 6.09,7.17 9.57,4.72 a 9.89,9.89 0 0 0 2.77,-3.63 c 3.27,-6.09 7.83,-13.09 15,-13.21 3.06,-0.05 5.93,1.24 8.89,2 2.96,0.76 6.46,0.84 8.67,-1.17 1.69,-1.54 2.49,-4.19 4.76,-4.73 2.27,-0.54 4.36,1.54 5.41,3.58 1.05,2.04 1.87,4.44 4,5.5 0.94,0.46 2,0.6 2.95,1.1 4.38,2.39 2.18,11 7.12,11.88 q 1,-9.6 1.93,-19.18 a 11.46,11.46 0 0 1 1.36,-5.16 c 0.66,-1 1.63,-1.84 2.36,-2.82 a 8.59,8.59 0 0 0 1.6,-4.12 10,10 0 0 1 -1.6,7.24 c -0.73,1 -1.7,1.79 -2.36,2.81 A 11.5,11.5 0 0 0 449,202 q -1,9.59 -1.93,19.18 c -4.94,-0.93 -2.74,-9.5 -7.12,-11.88 -0.91,-0.5 -2,-0.64 -2.95,-1.11 -2.11,-1 -2.93,-3.45 -4,-5.49 -1.07,-2.04 -3.1,-4.13 -5.41,-3.58 -2.31,0.55 -3.07,3.19 -4.76,4.73 -2.21,2 -5.72,1.92 -8.67,1.17 -2.95,-0.75 -5.83,-2 -8.89,-2 -7.17,0.12 -11.73,7.12 -15,13.21 a 9.89,9.89 0 0 1 -2.77,3.63 c -3.48,2.44 -9,-0.64 -9.57,-4.72 -0.34,-2.29 0.38,-4.84 -0.94,-6.78 -1.32,-1.94 -4.18,-2.35 -6.41,-3.39 -5.21,-2.4 -7.13,-8.55 -6.69,-14.14 0.4,4.57 2.46,9.03 6.71,10.99 z"
       transform="translate(-101.77,-35.91)"
       id="path289" />
    <path
       inkscape:connector-curvature="0"
       d="m 363.31,169.1 c 0.45,1.43 1.28,2.74 1.77,4.16 a 12,12 0 0 1 0.44,5.13 10,10 0 0 0 -0.44,-2 c -0.49,-1.43 -1.32,-2.73 -1.77,-4.16 a 8.78,8.78 0 0 1 -0.23,-4.07 8.2,8.2 0 0 0 0.23,0.94 z"
       transform="translate(-101.77,-35.91)"
       id="path291" />
  </g>
  <path
     inkscape:connector-curvature="0"
     style="fill:#746d83;stroke-width:0.50876904"
     d="m 299.15141,175.81814 -40.86433,-5.11313 a 1.5619209,1.5619209 0 0 1 -0.93105,-2.63542 l 17.14043,-17.80692 a 1.5568332,1.5568332 0 0 1 1.30245,-0.46806 l 31.24351,3.50033 a 1.5619209,1.5619209 0 0 1 1.28209,2.11648 l -7.5196,19.42988 a 1.5670086,1.5670086 0 0 1 -1.6535,0.97684 z"
     id="path295" />
  <path
     inkscape:connector-curvature="0"
     style="opacity:0.1;stroke-width:0.50876904"
     d="m 299.15141,175.81814 -40.86433,-5.11313 a 1.5619209,1.5619209 0 0 1 -0.93105,-2.63542 l 17.14043,-17.80692 a 1.5568332,1.5568332 0 0 1 1.30245,-0.46806 l 31.24351,3.50033 a 1.5619209,1.5619209 0 0 1 1.28209,2.11648 l -7.5196,19.42988 a 1.5670086,1.5670086 0 0 1 -1.6535,0.97684 z"
     id="path297" />
  <path
     inkscape:connector-curvature="0"
     style="fill:#746d83;stroke-width:0.50876904"
     d="m 298.68843,175.36025 -40.85924,-5.13348 a 1.5670086,1.5670086 0 0 1 -0.93105,-2.64051 l 17.14043,-17.80692 a 1.577184,1.577184 0 0 1 1.30245,-0.47315 l 31.23842,3.50033 a 1.5670086,1.5670086 0 0 1 1.28718,2.12157 l -7.52469,19.42988 a 1.5720963,1.5720963 0 0 1 -1.6535,1.00228 z"
     id="path299" />
  <path
     inkscape:connector-curvature="0"
     style="fill:#d1d9ec;stroke-width:0.50876904"
     d="m 274.33874,156.75457 12.27151,0.98701 17.50166,-1.13964 h -0.30018 l -16.21447,-1.56701 c -3.71401,-1.3635 -1.13964,-9.39188 -1.13964,-9.39188 l -12.41905,0.63087 -0.9921,0.0509 c -4.39068,10.27714 1.29227,10.42977 1.29227,10.42977 z"
     id="path301" />
  <path
     inkscape:connector-curvature="0"
     style="opacity:0.1;stroke-width:0.50876904"
     d="m 274.33874,156.75457 12.27151,0.98701 17.50166,-1.13964 h -0.30018 l -17.69498,0.63087 -11.85432,-1.28719 c -3.36805,-0.88525 -1.43982,-6.72592 -0.22386,-9.66661 l -0.9921,0.0509 c -4.39068,10.27205 1.29227,10.42468 1.29227,10.42468 z"
     id="path303" />
  <path
     inkscape:connector-curvature="0"
     style="fill:#4c4c56;stroke-width:0.50876904"
     d="m 252.84325,83.78183 3.75472,53.8532 0.50877,7.0668 a 3.0526141,3.0526141 0 0 0 3.08314,2.85419 h 1.13964 l 56.52424,-0.34087 a 1.592447,1.592447 0 0 0 1.56701,-1.74508 l -0.50877,-7.07189 -3.97858,-47.35622 a 3.251034,3.251034 0 0 0 -2.17244,-2.74735 l -53.87355,-8.07926 c -1.83157,-0.63596 -3.69875,-0.4121 -4.86383,0.55965 a 3.4189278,3.4189278 0 0 0 -1.18035,3.00683 z"
     id="path305" />
  <path
     inkscape:connector-curvature="0"
     style="fill:#dfe6f5;stroke-width:0.50876904"
     d="m 256.59797,137.63503 0.50877,7.0668 a 3.0526141,3.0526141 0 0 0 3.08314,2.85419 h 1.13964 l 56.52424,-0.34087 a 1.592447,1.592447 0 0 0 1.56701,-1.74508 l -0.50877,-7.07189 z"
     id="path307" />
  <ellipse
     style="fill:#ffffff;stroke-width:0.50876904"
     cx="294.49109"
     cy="143.49605"
     rx="0.75806582"
     ry="1.5161316"
     id="ellipse309" />
  <path
     inkscape:connector-curvature="0"
     style="fill:#d1d9ec;stroke-width:0.50876904"
     d="m 292.2932,163.64839 c 0,0 -15.4564,-5.83558 -19.62322,-1.59245 0,0 -0.68175,1.29227 2.12157,1.59245 l 11.3252,0.91069 c 0,0 4.66032,0.45281 6.17645,-0.91069 z"
     id="path311" />
  <path
     inkscape:connector-curvature="0"
     style="fill:#dfe6f5;stroke-width:0.50876904"
     d="m 291.8811,162.13225 c -3.05261,-1.24139 -12.17484,-4.45172 -18.02569,-0.90052 0,0 6.47155,-0.71736 10.02784,1.33807 3.5563,2.05542 8.40995,1.07859 8.40995,1.07859 l 0.0712,-0.1272 a 0.98192421,0.98192421 0 0 0 -0.48333,-1.38894 z"
     id="path313" />
  <path
     inkscape:connector-curvature="0"
     style="fill:#dfe6f5;stroke-width:0.50876904"
     d="m 252.84325,83.78183 4.24314,60.93017 a 3.0526141,3.0526141 0 0 0 3.08314,2.8542 h 1.13964 a 10.857131,10.857131 0 0 1 -1.97402,-2.54385 c 0,0 -4.16682,-61.22526 -4.47208,-62.74139 a 3.103491,3.103491 0 0 0 -0.83947,-1.49578 3.4189278,3.4189278 0 0 0 -1.18035,2.99665 z"
     id="path315" />
  <path
     inkscape:connector-curvature="0"
     style="opacity:0.1;stroke-width:0.50876904"
     d="m 252.84325,83.78183 4.24314,60.93017 a 3.0526141,3.0526141 0 0 0 3.08314,2.8542 h 1.13964 a 10.857131,10.857131 0 0 1 -1.97402,-2.54385 c 0,0 -4.16682,-61.22526 -4.47208,-62.74139 a 3.103491,3.103491 0 0 0 -0.83947,-1.49578 3.4189278,3.4189278 0 0 0 -1.18035,2.99665 z"
     id="path317" />
  <path
     inkscape:connector-curvature="0"
     style="opacity:0.1;stroke-width:0.50876904"
     d="m 245.55259,100.67296 c 4.57892,-1.01754 15.26307,-4.15156 15.26307,-4.15156 l 1.91297,-0.38666 c -0.0254,-6.6547 -0.35613,-13.1008 -0.47824,-15.26307 h -0.0458 c 0,0 -9.12223,2.9763 -11.29976,4.57892 -2.17753,1.60262 -8.92381,1.18543 -8.92381,1.18543 0,0 -10.50099,0.56473 -19.2162,10.29748 -8.71522,9.73276 18.22919,4.74173 22.78776,3.73946 z"
     id="path319" />
  <path
     inkscape:connector-curvature="0"
     style="fill:#efb7b9;stroke-width:0.50876904"
     d="m 290.11567,82.98306 a 2.6506866,2.6506866 0 0 1 0.59526,4.44664 c -2.41665,1.99946 -5.94242,4.39068 -9.31047,4.72646 -5.59646,0.56474 -19.12972,3.27648 -20.47287,3.56139 a 1.6280609,1.6280609 0 0 0 -0.21368,0.0509 c -1.1142,0.32562 -10.86222,3.17981 -15.16132,4.12103 -4.57892,1.01754 -31.54368,5.95769 -22.79794,-3.75471 8.02838,-8.94416 17.5678,-10.17538 19.03814,-10.2924 a 2.0350761,2.0350761 0 0 1 0.35105,0 c 1.01754,0.0458 6.7768,0.24421 8.76609,-1.19561 a 18.727788,18.727788 0 0 1 3.27647,-1.63315 62.680343,62.680343 0 0 1 13.40607,-3.86664 l 9.32573,-1.62806 a 2.6761251,2.6761251 0 0 1 1.56701,0.20351 z"
     id="path321" />
  <path
     inkscape:connector-curvature="0"
     style="fill:#67647e;stroke-width:0.50876904"
     d="m 270.53315,57.06636 4.36015,-0.39684 c 0,0 4.76208,3.56139 8.32855,3.56139 3.56647,0 5.74909,4.57892 5.74909,4.57892 0,0 5.94751,2.77788 7.93171,3.17472 1.9842,0.39684 5.35225,2.37595 4.36015,3.16963 -0.9921,0.79368 0.19842,2.57946 1.9842,3.96331 1.78578,1.38385 4.57892,8.52697 2.17753,9.51907 -2.40139,0.9921 -8.91872,2.97121 -10.68415,3.96331 -1.76543,0.9921 -3.96331,0 -3.96331,0 0,0 -10.52134,-13.69098 -15.87868,-11.11152 -5.35734,2.57946 -12.6887,2.57437 -12.6887,2.57437 L 256.4606,67.97437 Z"
     id="path323" />
</svg>
