<?xml version="1.0" encoding="UTF-8" standalone="no"?>
<svg
   xmlns:dc="http://purl.org/dc/elements/1.1/"
   xmlns:cc="http://creativecommons.org/ns#"
   xmlns:rdf="http://www.w3.org/1999/02/22-rdf-syntax-ns#"
   xmlns:svg="http://www.w3.org/2000/svg"
   xmlns="http://www.w3.org/2000/svg"
   xmlns:sodipodi="http://sodipodi.sourceforge.net/DTD/sodipodi-0.dtd"
   xmlns:inkscape="http://www.inkscape.org/namespaces/inkscape"
   id="a02257e8-5dd7-45a0-b624-c586cf0fa49a"
   data-name="Layer 1"
   width="400"
   height="283.44745"
   viewBox="0 0 399.99999 283.44745"
   version="1.1"
   sodipodi:docname="contact-img.svg"
   inkscape:version="0.92.4 5da689c313, 2019-01-14">
  <metadata
     id="metadata155">
    <rdf:RDF>
      <cc:Work
         rdf:about="">
        <dc:format>image/svg+xml</dc:format>
        <dc:type
           rdf:resource="http://purl.org/dc/dcmitype/StillImage" />
        <dc:title>contact details</dc:title>
      </cc:Work>
    </rdf:RDF>
  </metadata>
  <defs
     id="defs153" />
  <sodipodi:namedview
     pagecolor="#ffffff"
     bordercolor="#666666"
     borderopacity="1"
     objecttolerance="10"
     gridtolerance="10"
     guidetolerance="10"
     inkscape:pageopacity="0"
     inkscape:pageshadow="2"
     inkscape:window-width="1366"
     inkscape:window-height="689"
     id="namedview151"
     showgrid="false"
     fit-margin-top="0"
     fit-margin-left="0"
     fit-margin-right="0"
     fit-margin-bottom="0"
     inkscape:zoom="0.61835038"
     inkscape:cx="250.72968"
     inkscape:cy="305.45844"
     inkscape:window-x="0"
     inkscape:window-y="18"
     inkscape:window-maximized="1"
     inkscape:current-layer="a02257e8-5dd7-45a0-b624-c586cf0fa49a" />
  <title
     id="title2">contact details</title>
  <circle
     style="fill:#f6f6f6;fill-opacity:1;stroke-width:0.58985269"
     cx="341.03833"
     cy="224.43271"
     r="58.961674"
     id="circle283" />
  <path
     inkscape:connector-curvature="0"
     style="fill:#373737;fill-opacity:1;stroke-width:0.58985269"
     d="m 374.57147,206.61913 -17.65429,17.96102 a 0.31852045,0.31852045 0 0 0 0,0.46008 l 12.3869,13.17141 a 2.1352667,2.1352667 0 0 1 -1.50412,3.63939 2.1470638,2.1470638 0 0 1 -1.51003,-0.62524 l -12.32202,-13.12422 a 0.33621603,0.33621603 0 0 0 -0.47188,0 l -3.00235,3.03184 a 13.195005,13.195005 0 0 1 -9.43764,3.96971 13.484032,13.484032 0 0 1 -9.6028,-4.08178 l -2.88438,-2.94927 a 0.33621603,0.33621603 0 0 0 -0.47189,0 l -12.29253,13.09473 a 2.1293682,2.1293682 0 0 1 -3.01414,0 2.1234697,2.1234697 0 0 1 0,-3.01414 l 12.33971,-13.14192 a 0.35391161,0.35391161 0 0 0 0,-0.46009 l -17.65429,-17.96101 a 0.32441898,0.32441898 0 0 0 -0.55446,0.23004 v 35.93973 a 5.2614859,5.2614859 0 0 0 5.24379,5.24379 h 57.72888 a 5.2614859,5.2614859 0 0 0 5.24379,-5.24379 v -35.91023 a 0.32441898,0.32441898 0 0 0 -0.56625,-0.23005 z"
     id="path285" />
  <path
     inkscape:connector-curvature="0"
     style="fill:#373737;fill-opacity:1;stroke-width:0.58985269"
     d="m 341.03834,230.83848 a 8.9303696,8.9303696 0 0 0 6.44119,-2.65433 l 25.71168,-26.17177 a 5.1317184,5.1317184 0 0 0 -3.24419,-1.1797 h -57.77017 a 5.0963272,5.0963272 0 0 0 -3.24419,1.1797 l 25.71758,26.17177 a 8.8949785,8.8949785 0 0 0 6.3881,2.65433 z"
     id="path287" />
  <path
     inkscape:connector-curvature="0"
     style="opacity:0.1;stroke-width:0.58985269"
     d="m 340.29513,165.47691 a 58.985268,58.985268 0 1 0 58.95577,58.95577 58.985268,58.985268 0 0 0 -58.95577,-58.95577 z m 0,110.07831 a 51.122532,51.122532 0 1 1 51.12253,-51.12254 51.122532,51.122532 0 0 1 -51.12253,51.12254 z"
     id="path289" />
  <circle
     style="fill:#f6f6f6;fill-opacity:1;stroke-width:0.58985269"
     cx="134.37387"
     cy="58.961674"
     r="58.961674"
     id="circle277" />
  <path
     inkscape:connector-curvature="0"
     style="fill:#373737;fill-opacity:1;stroke-width:0.58985269"
     d="m 159.68449,74.168098 c -2.05268,-2.05269 -6.98975,-5.14941 -9.43764,-6.30552 -2.82539,-1.35666 -3.86353,-1.33307 -5.86313,0.11207 -1.66339,1.1797 -2.74282,2.31812 -4.65394,1.89932 -1.91113,-0.41879 -5.69798,-3.27368 -9.36096,-6.92487 -3.66299,-3.65118 -6.50608,-7.41445 -6.91308,-9.35507 -0.407,-1.94061 0.71372,-2.99645 1.90523,-4.65983 1.43924,-1.9996 1.48053,-3.03774 0.11207,-5.86314 -1.17971,-2.44789 -4.24104,-7.37316 -6.31143,-9.43764 -2.07038,-2.06448 -2.51867,-1.6103 -3.65118,-1.17971 a 21.116726,21.116726 0 0 0 -3.34447,1.76956 c -2.05269,1.37436 -3.2029,2.51867 -4.011,4.24104 -0.80809,1.72237 -1.72237,4.91937 2.97876,13.28938 a 74.138584,74.138584 0 0 0 13.03574,17.38297 v 0 0 a 74.250656,74.250656 0 0 0 17.44195,13.05934 c 8.36411,4.71882 11.56701,3.78095 13.28938,2.97875 1.72237,-0.8022 2.86668,-1.94061 4.23514,-4.011 a 20.839495,20.839495 0 0 0 1.76956,-3.34446 c 0.3893,-1.13252 0.84939,-1.5926 -1.221,-3.65119 z"
     id="path279" />
  <path
     inkscape:connector-curvature="0"
     style="opacity:0.1;stroke-width:0.58985269"
     d="M 134.37392,0.00591765 A 58.985268,58.985268 0 1 0 193.32969,58.961688 58.985268,58.985268 0 0 0 134.37392,0.00591765 Z m 0,110.07831235 a 51.122532,51.122532 0 1 1 51.12253,-51.122542 51.122532,51.122532 0 0 1 -51.12253,51.122542 z"
     id="path281" />
  <circle
     style="fill:#f6f6f6;fill-opacity:1;stroke-width:0.58985269"
     cx="59.014744"
     cy="212.56235"
     r="58.961674"
     id="circle291" />
  <path
     inkscape:connector-curvature="0"
     style="fill:#373737;fill-opacity:1;stroke-width:0.58985269"
     d="m 59.014756,184.34973 -23.50563,54.23106 2.19425,2.19425 21.31728,-9.40225 21.31728,9.40225 2.19425,-2.19425 z"
     id="path293" />
  <path
     inkscape:connector-curvature="0"
     style="opacity:0.1;stroke-width:0.58985269"
     d="m 59.014756,153.58302 a 58.985268,58.985268 0 1 0 58.955784,58.98527 58.985268,58.985268 0 0 0 -58.955784,-58.98527 z m 0,110.07831 a 51.122532,51.122532 0 1 1 51.122534,-51.09304 51.122532,51.122532 0 0 1 -51.122534,51.11663 z"
     id="path295" />
  <rect
     x="76.80204"
     y="75.907745"
     width="248.32799"
     height="148.64288"
     rx="12.642353"
     id="rect136"
     style="fill:#f6f6f6;fill-opacity:1;stroke-width:0.58985269" />
  <rect
     x="103.57738"
     y="180.16422"
     width="194.65138"
     height="7.0782323"
     id="rect138"
     style="opacity:0.3;fill:#373737;fill-opacity:1;stroke-width:0.58985269" />
  <rect
     x="103.70332"
     y="161.58386"
     width="194.65138"
     height="7.0782323"
     id="rect140"
     style="opacity:0.3;fill:#373737;fill-opacity:1;stroke-width:0.58985269" />
  <rect
     x="263.55341"
     y="136.22018"
     width="34.801308"
     height="7.0782323"
     id="rect142"
     style="opacity:0.3;fill:#373737;fill-opacity:1;stroke-width:0.58985269" />
  <rect
     x="170.9465"
     y="117.34491"
     width="127.40818"
     height="7.0782323"
     id="rect144"
     style="opacity:0.3;fill:#373737;fill-opacity:1;stroke-width:0.58985269" />
  <rect
     x="103.57738"
     y="199.03952"
     width="97.451614"
     height="7.0782323"
     id="rect146"
     style="opacity:0.3;fill:#373737;fill-opacity:1;stroke-width:0.58985269" />
  <rect
     x="103.70332"
     y="94.340637"
     width="48.957771"
     height="48.957771"
     rx="5.9960589"
     id="rect148"
     style="fill:#373737;fill-opacity:1;stroke-width:0.58985269" />
</svg>
