<?xml version="1.0" encoding="UTF-8" standalone="no"?>
<svg
   xmlns:dc="http://purl.org/dc/elements/1.1/"
   xmlns:cc="http://creativecommons.org/ns#"
   xmlns:rdf="http://www.w3.org/1999/02/22-rdf-syntax-ns#"
   xmlns:svg="http://www.w3.org/2000/svg"
   xmlns="http://www.w3.org/2000/svg"
   xmlns:sodipodi="http://sodipodi.sourceforge.net/DTD/sodipodi-0.dtd"
   xmlns:inkscape="http://www.inkscape.org/namespaces/inkscape"
   aria-hidden="true"
   focusable="false"
   data-prefix="fab"
   data-icon="github"
   class="svg-inline--fa fa-github fa-w-16"
   role="img"
   viewBox="0 0 44.999999 38.890003"
   version="1.1"
   id="svg4"
   sodipodi:docname="github-brand.svg"
   width="45"
   height="38.890003"
   inkscape:version="0.92.4 5da689c313, 2019-01-14">
  <metadata
     id="metadata10">
    <rdf:RDF>
      <cc:Work
         rdf:about="">
        <dc:format>image/svg+xml</dc:format>
        <dc:type
           rdf:resource="http://purl.org/dc/dcmitype/StillImage" />
        <dc:title />
      </cc:Work>
    </rdf:RDF>
  </metadata>
  <defs
     id="defs8" />
  <sodipodi:namedview
     pagecolor="#ffffff"
     bordercolor="#666666"
     borderopacity="1"
     objecttolerance="10"
     gridtolerance="10"
     guidetolerance="10"
     inkscape:pageopacity="0"
     inkscape:pageshadow="2"
     inkscape:window-width="1366"
     inkscape:window-height="689"
     id="namedview6"
     showgrid="false"
     fit-margin-top="0"
     fit-margin-left="0"
     fit-margin-right="0"
     fit-margin-bottom="0"
     inkscape:zoom="3.6875"
     inkscape:cx="5.7691539"
     inkscape:cy="33.494779"
     inkscape:window-x="0"
     inkscape:window-y="18"
     inkscape:window-maximized="1"
     inkscape:current-layer="svg4" />
  <path
     d="m 15.051411,31.31417 c 0,0.16083 -0.20867,0.2895 -0.471775,0.2895 -0.299394,0.0241 -0.508064,-0.10454 -0.508064,-0.2895 0,-0.16083 0.20867,-0.2895 0.471774,-0.2895 0.272177,-0.0241 0.508065,0.10454 0.508065,0.2895 z M 12.229838,30.9523 c -0.06351,0.16083 0.117944,0.34579 0.390122,0.39404 0.235887,0.0804 0.508064,0 0.562499,-0.16084 0.05444,-0.16083 -0.117943,-0.34579 -0.39012,-0.41816 -0.235888,-0.0563 -0.498993,0.0241 -0.562501,0.18496 z m 4.010081,-0.13671 c -0.263104,0.0563 -0.444557,0.20908 -0.417339,0.39404 0.02722,0.16083 0.263105,0.26537 0.535283,0.20908 0.263104,-0.0563 0.444556,-0.20908 0.417338,-0.36991 -0.02722,-0.1528 -0.272177,-0.25734 -0.535282,-0.23321 z M 22.209677,0 C 9.626008,0 0,8.46785 0,19.62162 c 0,8.91818 6.3326611,16.54971 15.378024,19.23562 1.16129,0.18495 1.569556,-0.45034 1.569556,-0.97305 0,-0.49858 -0.02722,-3.24882 -0.02722,-4.93756 0,0 -6.350806,1.20624 -7.6844751,-2.39642 0,0 -1.0342742,-2.34011 -2.5221775,-2.94324 0,0 -2.0776207,-1.26254 0.1451614,-1.23841 0,0 2.2590727,0.16083 3.5020162,2.07474 1.986895,3.10408 5.316532,2.21145 6.613911,1.68071 0.208669,-1.28667 0.798387,-2.17929 1.451612,-2.71004 -5.071571,-0.49858 -10.1885069,-1.14995 -10.1885069,-8.88602 0,-2.21145 0.689516,-3.3212 2.1411289,-4.73653 -0.235887,-0.5227 -1.0070564,-2.67786 0.235887,-5.46027 1.89617,-0.52271 6.260081,2.17124 6.260081,2.17124 1.814515,-0.45033 3.76512,-0.68354 5.697579,-0.68354 1.932461,0 3.883066,0.23321 5.697583,0.68354 0,0 4.36391,-2.70199 6.260079,-2.17124 1.242943,2.79045 0.471775,4.93757 0.235889,5.46027 1.451611,1.42338 2.340724,2.53312 2.340724,4.73653 0,7.76019 -5.34375,8.3794 -10.415323,8.88602 0.834677,0.63529 1.542339,1.84154 1.542339,3.73133 0,2.71003 -0.02722,6.0634 -0.02722,6.72281 0,0.52271 0.417338,1.158 1.569556,0.97304 C 38.84879,36.17133 45,28.5398 45,19.62162 45,8.46785 34.793346,0 22.209677,0 Z M 8.8185481,27.73564 c -0.1179434,0.0804 -0.090726,0.26537 0.063508,0.41816 0.1451612,0.12867 0.3538306,0.18496 0.4717743,0.0804 0.1179434,-0.0804 0.090726,-0.26538 -0.063508,-0.41816 C 9.145161,27.68737 8.9364918,27.63108 8.8185481,27.73564 Z M 7.8387096,27.08426 c -0.063508,0.10455 0.027218,0.23321 0.2086694,0.31363 0.1451612,0.0804 0.3266128,0.0563 0.3901208,-0.0563 0.063508,-0.10454 -0.027218,-0.23321 -0.2086694,-0.31363 -0.1814514,-0.0482 -0.3266128,-0.0241 -0.3901208,0.0563 z m 2.9395164,2.86283 c -0.145162,0.10454 -0.09073,0.34579 0.117943,0.49858 0.208669,0.18496 0.471774,0.20908 0.589718,0.0804 0.117943,-0.10454 0.06351,-0.34579 -0.117944,-0.49858 -0.199597,-0.18496 -0.471774,-0.20908 -0.589717,-0.0804 z M 9.7439514,28.76497 c -0.1451614,0.0804 -0.1451614,0.2895 0,0.47446 0.1451614,0.18495 0.3901206,0.26537 0.5080646,0.18495 0.145161,-0.10454 0.145161,-0.31362 0,-0.49858 C 10.125,28.74084 9.8891128,28.66043 9.7439514,28.76497 Z"
     id="path2"
     inkscape:connector-curvature="0"
     style="fill:#f6f6f6;stroke-width:0.08541574;fill-opacity:1" />
</svg>
