<?xml version="1.0" encoding="UTF-8" standalone="no"?>
<svg
   xmlns:dc="http://purl.org/dc/elements/1.1/"
   xmlns:cc="http://creativecommons.org/ns#"
   xmlns:rdf="http://www.w3.org/1999/02/22-rdf-syntax-ns#"
   xmlns:svg="http://www.w3.org/2000/svg"
   xmlns="http://www.w3.org/2000/svg"
   xmlns:sodipodi="http://sodipodi.sourceforge.net/DTD/sodipodi-0.dtd"
   xmlns:inkscape="http://www.inkscape.org/namespaces/inkscape"
   id="a594ac37-6d44-4297-8862-1cbd9c01c0b7"
   data-name="Layer 1"
   width="700"
   height="450"
   viewBox="0 0 699.99997 450"
   version="1.1"
   sodipodi:docname="main-main.svg"
   inkscape:version="0.92.4 5da689c313, 2019-01-14">
  <metadata
     id="metadata4797">
    <rdf:RDF>
      <cc:Work
         rdf:about="">
        <dc:format>image/svg+xml</dc:format>
        <dc:type
           rdf:resource="http://purl.org/dc/dcmitype/StillImage" />
        <dc:title>code review</dc:title>
      </cc:Work>
    </rdf:RDF>
  </metadata>
  <defs
     id="defs4795" />
  <sodipodi:namedview
     pagecolor="#ffffff"
     bordercolor="#666666"
     borderopacity="1"
     objecttolerance="10"
     gridtolerance="10"
     guidetolerance="10"
     inkscape:pageopacity="0"
     inkscape:pageshadow="2"
     inkscape:window-width="1366"
     inkscape:window-height="689"
     id="namedview4793"
     showgrid="false"
     inkscape:zoom="0.56374269"
     inkscape:cx="505.61242"
     inkscape:cy="310.02829"
     inkscape:window-x="0"
     inkscape:window-y="18"
     inkscape:window-maximized="1"
     inkscape:current-layer="a594ac37-6d44-4297-8862-1cbd9c01c0b7"
     fit-margin-top="0"
     fit-margin-left="0"
     fit-margin-right="0"
     fit-margin-bottom="0" />
  <title
     id="title4692">code review</title>
  <ellipse
     cx="246.77141"
     cy="312.93536"
     rx="246.77141"
     ry="23.088713"
     id="ellipse4696"
     style="fill:#292326;fill-opacity:1;stroke-width:0.60268611" />
  <rect
     x="36.259682"
     y="0"
     width="412.63785"
     height="311.27731"
     id="rect4704"
     style="fill:#333333;stroke-width:0.53805089" />
  <path
     d="M 244.26249,44.131204 H 139.24472 a 1.2744882,1.2322881 0 1 1 0,-2.46457 h 105.01777 a 1.2744882,1.2322881 0 0 1 0,2.46457 z"
     id="path4706"
     inkscape:connector-curvature="0"
     style="fill:#00d9c3;fill-opacity:0.80454544;stroke-width:0.55662864" />
  <path
     d="M 359.22125,57.686374 H 194.04769 a 1.2744902,1.23229 0 0 1 0,-2.46458 h 165.17356 a 1.2744902,1.23229 0 1 1 0,2.46458 z"
     id="path4708"
     inkscape:connector-curvature="0"
     style="fill:#dd1620;fill-opacity:1;stroke-width:0.55662864" />
  <path
     d="M 244.77229,71.241524 H 139.75452 a 1.2744882,1.2322881 0 1 1 0,-2.46457 h 105.01777 a 1.2744882,1.2322881 0 1 1 0,2.46457 z"
     id="path4710"
     inkscape:connector-curvature="0"
     style="fill:#00d9c3;fill-opacity:0.80454544;stroke-width:0.55662864" />
  <path
     d="M 359.22125,71.487984 H 254.20349 a 1.2744882,1.2322881 0 0 1 0,-2.46457 h 105.01776 a 1.2744882,1.2322881 0 1 1 0,2.46457 z"
     id="path4712"
     inkscape:connector-curvature="0"
     style="fill:#30e12d;fill-opacity:1;stroke-width:0.55662864" />
  <path
     d="M 245.02719,84.796694 H 140.00942 a 1.2744902,1.23229 0 0 1 0,-2.46458 h 105.01777 a 1.2744902,1.23229 0 1 1 0,2.46458 z"
     id="path4714"
     inkscape:connector-curvature="0"
     style="fill:#dd1620;fill-opacity:1;stroke-width:0.55662864" />
  <path
     d="M 245.28208,98.351844 H 140.26432 a 1.2744894,1.2322893 0 0 1 0,-2.46457 h 105.01776 a 1.2744894,1.2322893 0 1 1 0,2.46457 z"
     id="path4716"
     inkscape:connector-curvature="0"
     style="fill:#30e12d;fill-opacity:1;stroke-width:0.55662864" />
  <path
     d="M 292.94791,44.377664 H 262.87 a 1.2744882,1.2322881 0 0 1 0,-2.46457 h 30.07791 a 1.2744882,1.2322881 0 1 1 0,2.46457 z"
     id="path4718"
     inkscape:connector-curvature="0"
     style="fill:#ff8c00;fill-opacity:0.73636367;stroke-width:0.55662864" />
  <path
     d="M 292.94791,84.796694 H 262.87 a 1.2744902,1.23229 0 0 1 0,-2.46458 h 30.07791 a 1.2744902,1.23229 0 1 1 0,2.46458 z"
     id="path4720"
     inkscape:connector-curvature="0"
     style="fill:#ff8c00;fill-opacity:0.73636367;stroke-width:0.55662864" />
  <path
     d="M 292.94791,98.105384 H 262.87 a 1.2744882,1.2322881 0 1 1 0,-2.46456 h 30.07791 a 1.2744882,1.2322881 0 1 1 0,2.46456 z"
     id="path4722"
     inkscape:connector-curvature="0"
     style="fill:#ff8c00;fill-opacity:0.73636367;stroke-width:0.55662864" />
  <path
     d="M 343.41761,98.105384 H 313.3397 a 1.2744882,1.2322881 0 0 1 0,-2.46456 h 30.07791 a 1.2744882,1.2322881 0 1 1 0,2.46456 z"
     id="path4724"
     inkscape:connector-curvature="0"
     style="fill:#ff8c00;fill-opacity:0.73636367;stroke-width:0.55662864" />
  <path
     d="m 169.06773,57.686374 h -30.0779 a 1.2744902,1.23229 0 0 1 0,-2.46458 h 30.0779 a 1.2744902,1.23229 0 0 1 0,2.46458 z"
     id="path4726"
     inkscape:connector-curvature="0"
     style="fill:#ff8c00;fill-opacity:0.73636367;stroke-width:0.55662864" />
  <path
     d="M 244.38994,243.76174 H 139.37217 a 1.2744882,1.2322881 0 0 1 0,-2.46457 h 105.01777 a 1.2744882,1.2322881 0 0 1 0,2.46457 z"
     id="path4728"
     inkscape:connector-curvature="0"
     style="fill:#30e12d;fill-opacity:1;stroke-width:0.55662864" />
  <path
     d="M 243.88014,270.87206 H 138.86238 a 1.2744904,1.2322902 0 1 1 0,-2.46458 h 105.01776 a 1.2744904,1.2322902 0 0 1 0,2.46458 z"
     id="path4730"
     inkscape:connector-curvature="0"
     style="fill:#00d9c3;fill-opacity:0.80454544;stroke-width:0.55662864" />
  <path
     d="M 244.13504,284.42722 H 139.11728 a 1.2744882,1.2322881 0 1 1 0,-2.46457 h 105.01776 a 1.2744882,1.2322881 0 1 1 0,2.46457 z"
     id="path4732"
     inkscape:connector-curvature="0"
     style="fill:#30e12d;fill-opacity:1;stroke-width:0.55662864" />
  <path
     d="m 288.997,271.11852 h -30.07791 a 1.2744904,1.2322902 0 0 1 0,-2.46458 H 288.997 a 1.2744904,1.2322902 0 0 1 0,2.46458 z"
     id="path4734"
     inkscape:connector-curvature="0"
     style="fill:#ff8c00;fill-opacity:0.73636367;stroke-width:0.55662864" />
  <path
     d="m 288.997,284.42722 h -30.07791 a 1.2744863,1.2322863 0 0 1 0,-2.46457 H 288.997 a 1.2744863,1.2322863 0 1 1 0,2.46457 z"
     id="path4736"
     inkscape:connector-curvature="0"
     style="fill:#ff8c00;fill-opacity:0.73636367;stroke-width:0.55662864" />
  <path
     d="m 339.4667,271.11852 h -30.0779 a 1.2744904,1.2322902 0 1 1 0,-2.46458 h 30.0779 a 1.2744904,1.2322902 0 0 1 0,2.46458 z"
     id="path4738"
     inkscape:connector-curvature="0"
     style="fill:#ff8c00;fill-opacity:0.73636367;stroke-width:0.55662864" />
  <path
     d="M 359.3487,257.31691 H 194.17513 a 1.2744954,1.232295 0 0 1 0,-2.46459 H 359.3487 a 1.2744954,1.232295 0 0 1 0,2.46459 z"
     id="path4740"
     inkscape:connector-curvature="0"
     style="fill:#dd1620;fill-opacity:1;stroke-width:0.55662864" />
  <path
     d="m 169.19518,257.31691 h -30.0779 a 1.2744954,1.232295 0 0 1 0,-2.46459 h 30.0779 a 1.2744954,1.232295 0 0 1 0,2.46459 z"
     id="path4742"
     inkscape:connector-curvature="0"
     style="fill:#ff8c00;fill-opacity:0.73636367;stroke-width:0.55662864" />
  <path
     d="M 359.3487,298.22884 H 194.17513 a 1.2744901,1.23229 0 1 1 0,-2.46458 H 359.3487 a 1.2744901,1.23229 0 0 1 0,2.46458 z"
     id="path4744"
     inkscape:connector-curvature="0"
     style="fill:#dd1620;fill-opacity:1;stroke-width:0.55662864" />
  <path
     d="m 169.19518,298.22884 h -30.0779 a 1.2744901,1.23229 0 1 1 0,-2.46458 h 30.0779 a 1.2744901,1.23229 0 1 1 0,2.46458 z"
     id="path4746"
     inkscape:connector-curvature="0"
     style="fill:#ff8c00;fill-opacity:0.73636367;stroke-width:0.55662864" />
  <polygon
     points="519.06,401.13 447.014,472.275 519.06,543.42 535.27,527.21 480.786,472.725 535.72,417.79 "
     id="polygon4748"
     transform="matrix(0.56607942,0,0,0.54733572,-74.80145,-88.668386)"
     style="fill:#e6e6e6" />
  <polygon
     points="625.327,401.13 697.373,472.275 625.327,543.42 609.117,527.21 663.602,472.725 608.667,417.79 "
     id="polygon4750"
     transform="matrix(0.56607942,0,0,0.54733572,-74.80145,-88.668386)"
     style="fill:#e6e6e6" />
  <ellipse
     cx="47.581261"
     cy="8.210022"
     id="circle4752"
     style="fill:#be0000;fill-opacity:0.76363633;stroke-width:0.55662864"
     rx="5.0947146"
     ry="4.9260216" />
  <ellipse
     cx="61.167175"
     cy="8.210022"
     id="circle4754"
     style="fill:#ff9a00;fill-opacity:1;stroke-width:0.55662864"
     rx="5.0947146"
     ry="4.9260216" />
  <ellipse
     cx="74.75309"
     cy="8.210022"
     id="circle4756"
     style="fill:#00b226;fill-opacity:0.85909095;stroke-width:0.55662864"
     rx="5.0947146"
     ry="4.9260216" />
  <rect
     x="36.259682"
     y="16.420074"
     width="408.90076"
     height="1.6420071"
     id="rect4758"
     style="opacity:0.1;fill:#000000;stroke-width:0.54554039" />
  <ellipse
     cx="553.65729"
     cy="429.28046"
     rx="146.3427"
     ry="20.71954"
     id="ellipse4696-3"
     style="fill:#292326;fill-opacity:1;stroke-width:0.43966261" />
  <path
     d="m 444.84407,391.56482 11.79866,45.85925 a 1.1798656,1.4329117 0 0 0 1.12487,1.00182 h 50.62923 l -11.99863,-53.4306 -50.52424,4.71768 a 1.1798656,1.4329117 0 0 0 -1.02989,1.85185 z"
     id="path5381"
     inkscape:connector-curvature="0"
     style="fill:#656478;stroke-width:0.55095226" />
  <path
     d="m 516.83165,252.90574 c -7.5856,0.75144 -15.14221,1.96906 -22.66984,3.65285 -2.13932,0.48009 -4.30995,1.01236 -6.26143,2.43176 -1.51646,1.19134 -2.91446,2.69486 -4.1534,4.46692 -5.58789,7.50998 -10.08717,16.66277 -13.21857,26.89023 -1.93757,6.34032 -3.32899,13.04592 -5.15524,19.43841 -6.50145,22.83035 -18.2938,41.50165 -25.15702,64.09195 -1.48535,4.88961 -2.73764,9.99317 -3.23507,15.31068 -0.51483,5.50016 0.0696,11.91874 3.08202,15.13326 1.39142,1.4768 3.082,2.08734 4.7378,2.60919 20.84411,6.92469 41.93067,12.09027 63.16039,15.47244 -2.29933,-3.32932 -3.06809,-8.49028 -2.76545,-13.25986 0.30263,-4.76958 1.55144,-9.27826 2.78285,-13.69821 -12.01498,-3.97639 -23.99981,-8.15109 -35.9545,-12.52407 -1.78451,-0.6523 -3.9273,-1.87861 -4.14646,-4.61304 -0.11131,-1.3933 0.34786,-2.73442 0.80008,-3.96074 5.09857,-13.84988 11.21236,-26.80214 18.2277,-38.61589 0,14.64272 -0.48351,31.17972 -0.48351,45.82768 h 112.74045 c -1.35585,-8.35751 -2.1529,-16.89698 -2.37935,-25.49172 -0.52527,-28.05393 5.77093,-55.89389 4.13602,-83.89042 -0.15308,-2.5831 -0.38961,-5.24446 -1.29054,-7.45705 -1.55493,-3.81983 -4.65781,-5.40101 -7.51024,-6.70559 -10.93663,-4.98875 -22.10284,-2.44534 -33.53341,-2.05396 -3.39856,0.12002 -12.25134,-4.02857 -15.62904,-3.42847 -10.29309,1.82122 -15.78245,-0.65437 -26.12424,0.37365 z"
     id="path5379"
     inkscape:connector-curvature="0"
     style="fill:#333333;stroke-width:0.42605689"
     sodipodi:nodetypes="cccccccccccccccccccccccccc" />
  <path
     inkscape:connector-curvature="0"
     style="fill:#333333;stroke-width:0.30667916"
     d="m 552.15188,295.29258 a 100.12915,108.58402 0 0 0 55.3037,-17.9483 c -3.70773,-21.9723 -17.81712,-23.22421 -17.81712,-23.22421 h -77.80624 c 0,0 -13.31423,1.18484 -17.47253,21.39743 a 100.14976,108.60637 0 0 0 57.79219,19.77508 z"
     id="path5904" />
  <path
     d="m 455.71784,431.30383 4.89444,-147.4624 a 7.4291542,9.0224865 0 0 1 7.49914,-8.65818 l 193.23801,2.24651 a 7.4291542,9.0224865 0 0 1 7.32414,9.8118 l -10.20883,141.26931 a 7.4291542,9.0224865 0 0 1 -7.27417,8.23317 l -187.9186,3.94658 a 7.4341535,9.0285581 0 0 1 -7.55413,-9.38679 z"
     id="path5427"
     style="fill:#808080;stroke-width:0.55095226"
     inkscape:connector-curvature="0" />
  <ellipse
     cx="563.98425"
     cy="356.42053"
     rx="8.499032"
     ry="12.14332"
     id="ellipse5429"
     style="fill:#f9f9f9;stroke-width:0.55095226" />
  <ellipse
     style="fill:#333333;stroke-width:0.30667916"
     cx="543.05249"
     cy="182.2399"
     id="circle5906"
     rx="48.562634"
     ry="52.663246" />
  <path
     inkscape:connector-curvature="0"
     style="opacity:0.1;stroke-width:0.30667916"
     d="m 527.37935,226.10465 h 31.11661 v 26.9959 a 15.558302,16.87204 0 0 1 -15.55241,16.87204 v 0 a 15.558302,16.87204 0 0 1 -15.55831,-16.87204 v -26.9959 z"
     id="path5908" />
  <path
     inkscape:connector-curvature="0"
     style="fill:#fdb797;stroke-width:0.30667916"
     d="m 528.36592,224.85274 h 29.15525 a 0.98656657,1.0698719 0 0 1 0.98657,1.06987 v 25.92603 a 15.558302,16.87204 0 0 1 -15.56419,16.87524 v 0 a 15.558302,16.87204 0 0 1 -15.55831,-16.87205 v -25.92922 a 0.98656657,1.0698719 0 0 1 0.98068,-1.06987 z"
     id="path5910" />
  <path
     inkscape:connector-curvature="0"
     style="opacity:0.1;stroke-width:0.30667916"
     d="m 527.43531,238.8473 a 44.784233,48.565798 0 0 0 31.1166,0.0926 v -4.15175 h -31.1166 z"
     id="path5912" />
  <ellipse
     style="fill:#fdb797;stroke-width:0.30667916"
     cx="543.05249"
     cy="192.73743"
     id="circle5914"
     rx="44.601643"
     ry="48.36779" />
  <path
     inkscape:connector-curvature="0"
     style="opacity:0.1;stroke-width:0.30667916"
     d="m 511.28212,148.74173 c 0,0 18.79778,41.3769 71.82205,17.34789 l -12.34533,-20.99185 -21.88411,-8.51745 z"
     id="path5916" />
  <path
     inkscape:connector-curvature="0"
     style="fill:#333333;stroke-width:0.30667916"
     d="m 511.28212,148.13494 c 0,0 18.79778,41.37689 71.82205,17.34151 l -12.34533,-20.99185 -21.88411,-8.51746 z"
     id="path5918" />
  <path
     inkscape:connector-curvature="0"
     style="fill:#333333;stroke-width:0.30667916"
     d="m 511.1172,145.33092 a 25.765585,27.941222 0 0 1 6.38765,-11.264 c 8.77309,-9.40529 23.15635,-11.38855 30.5335,-22.11281 1.76699,2.97647 0.40052,7.55297 -2.65048,8.83043 7.06795,-0.0511 15.25792,-0.72177 19.25425,-7.02602 a 13.219992,14.336284 0 0 1 -2.22934,15.13788 c 6.26396,0.31937 12.95789,4.91823 13.35251,11.70472 0.27094,4.52221 -2.35598,8.80169 -5.76921,11.39494 -3.41322,2.59324 -7.57152,3.78447 -11.65032,4.75853 -11.90948,2.85193 -55.00034,14.78659 -47.22856,-11.42367 z"
     id="path5920" />
  <ellipse
     style="fill:#fdb797;stroke-width:0.30667916"
     cx="498.43317"
     cy="192.69272"
     rx="4.1494699"
     ry="8.4376163"
     id="ellipse5922" />
  <ellipse
     style="fill:#fdb797;stroke-width:0.30667916"
     cx="587.64825"
     cy="192.69272"
     rx="4.1494699"
     ry="8.4376163"
     id="ellipse5924" />
  <path
     inkscape:connector-curvature="0"
     style="fill:#1a1a1a;stroke-width:0.23502134"
     d="m 569.39691,178.55315 h -15.94379 a 4.0855969,3.6361924 0 0 0 -4.07315,3.62512 v 9.66695 a 4.0855969,3.6361924 0 0 0 4.07315,3.6251 h 15.94379 a 4.0855969,3.6361924 0 0 0 4.07314,-3.6251 v -9.66695 a 4.0855969,3.6361924 0 0 0 -4.07314,-3.62512 z m 0.67761,10.87754 a 4.0855969,3.6361924 0 0 1 -4.07314,3.62511 h -9.1627 a 4.0855969,3.6361924 0 0 1 -4.07314,-3.62511 v -4.83348 a 4.0855969,3.6361924 0 0 1 4.07314,-3.6251 h 9.16519 a 4.0855969,3.6361924 0 0 1 4.07065,3.62289 z"
     id="path6989" />
  <path
     inkscape:connector-curvature="0"
     style="fill:#1a1a1a;stroke-width:0.23502134"
     d="m 512.37044,182.17827 v 9.66695 a 4.0855969,3.6361924 0 0 0 4.07314,3.6251 h 15.9438 a 4.0855969,3.6361924 0 0 0 4.07314,-3.6251 v -9.66695 a 4.0855969,3.6361924 0 0 0 -4.07314,-3.62512 h -15.9438 a 4.0855969,3.6361924 0 0 0 -4.07314,3.62512 z m 3.39553,2.41673 a 4.0855969,3.6361924 0 0 1 4.07314,-3.62511 h 9.16519 a 4.0855969,3.6361924 0 0 1 4.07314,3.62511 v 4.83347 a 4.0855969,3.6361924 0 0 1 -4.07314,3.62511 h -9.16768 a 4.0855969,3.6361924 0 0 1 -4.07065,-3.62289 z"
     id="path6991" />
  <path
     inkscape:connector-curvature="0"
     style="fill:#1a1a1a;stroke-width:0.17588137"
     d="m 548.72728,185.5806 a 10.333571,5.1507067 0 0 0 -11.27526,0 c -0.94167,0.3005 -2.22466,0.36382 -2.98946,0.0136 l -0.95912,-0.47807 c -0.74736,-0.3452 -0.32635,-1.18088 1.15842,-1.66267 a 15.44555,7.6987421 0 0 1 16.83814,0 c 1.49474,0.48179 1.91326,1.31871 1.15842,1.66267 l -0.94916,0.47435 c -0.75484,0.35265 -2.03781,0.29056 -2.98198,-0.01 z"
     id="path6993" />
</svg>
