<?xml version="1.0" encoding="UTF-8" standalone="no"?>
<svg
   xmlns:dc="http://purl.org/dc/elements/1.1/"
   xmlns:cc="http://creativecommons.org/ns#"
   xmlns:rdf="http://www.w3.org/1999/02/22-rdf-syntax-ns#"
   xmlns:svg="http://www.w3.org/2000/svg"
   xmlns="http://www.w3.org/2000/svg"
   xmlns:sodipodi="http://sodipodi.sourceforge.net/DTD/sodipodi-0.dtd"
   xmlns:inkscape="http://www.inkscape.org/namespaces/inkscape"
   aria-hidden="true"
   focusable="false"
   data-prefix="fab"
   data-icon="twitter"
   class="svg-inline--fa fa-twitter fa-w-16"
   role="img"
   viewBox="0 0 45 36.548321"
   version="1.1"
   id="svg4"
   sodipodi:docname="twitter-brand.svg"
   width="45"
   height="36.548321"
   inkscape:version="0.92.4 5da689c313, 2019-01-14">
  <metadata
     id="metadata10">
    <rdf:RDF>
      <cc:Work
         rdf:about="">
        <dc:format>image/svg+xml</dc:format>
        <dc:type
           rdf:resource="http://purl.org/dc/dcmitype/StillImage" />
        <dc:title></dc:title>
      </cc:Work>
    </rdf:RDF>
  </metadata>
  <defs
     id="defs8" />
  <sodipodi:namedview
     pagecolor="#ffffff"
     bordercolor="#666666"
     borderopacity="1"
     objecttolerance="10"
     gridtolerance="10"
     guidetolerance="10"
     inkscape:pageopacity="0"
     inkscape:pageshadow="2"
     inkscape:window-width="1366"
     inkscape:window-height="689"
     id="namedview6"
     showgrid="false"
     fit-margin-top="0"
     fit-margin-left="0"
     fit-margin-right="0"
     fit-margin-bottom="0"
     inkscape:zoom="0.4609375"
     inkscape:cx="255.99999"
     inkscape:cy="207.919"
     inkscape:window-x="0"
     inkscape:window-y="18"
     inkscape:window-maximized="1"
     inkscape:current-layer="svg4" />
  <path
     d="m 40.374469,9.1085 c 0.02857,0.39972 0.02857,0.79954 0.02857,1.19927 0,12.19223 -9.279792,26.24055 -26.240552,26.24055 C 8.9371931,36.54832 4.0831507,35.03493 0,32.40813 c 0.74241501,0.0856 1.4561776,0.11417 2.2271571,0.11417 4.3114915,0 8.2804719,-1.45618 11.4499079,-3.94033 -4.054586,-0.0857 -7.4524508,-2.74114 -8.6231585,-6.396 0.5711155,0.0856 1.1421431,0.14273 1.7418232,0.14273 0.8280208,0 1.6561295,-0.11425 2.4270212,-0.31403 C 4.9968652,21.158 1.8273411,17.4461 1.8273411,12.96322 v -0.11417 c 1.227749,0.68528 2.6555377,1.11358 4.1687565,1.17062 C 3.5119473,12.36354 1.8844703,9.53679 1.8844703,6.33879 c 0,-1.71317 0.4567693,-3.28361 1.2563135,-4.65418 C 7.6807917,7.28107 14.505086,10.93584 22.157313,11.33565 22.014578,10.65037 21.928884,9.9366 21.928884,9.22275 21.928884,4.1402 26.0406,0 31.151635,0 33.807085,0 36.205542,1.11358 37.890236,2.91245 39.97457,2.51272 41.973299,1.74174 43.743686,0.68529 43.058313,2.82684 41.602135,4.62571 39.6891,5.76776 41.545094,5.56798 43.343958,5.05391 45,4.34015 43.743862,6.16749 42.173339,7.79497 40.374474,9.1085 Z"
     id="path2"
     inkscape:connector-curvature="0"
     style="fill:currentColor;stroke-width:0.08789097" />
</svg>
